<?xml version="1.0" encoding="utf-8"?>
<!-- Uploaded to: SVG Repo, www.svgrepo.com, Generator: SVG Repo Mixer Tools -->
<svg fill="#000000" width="800px" height="800px" viewBox="-6 0 32 32" version="1.1" xmlns="http://www.w3.org/2000/svg">
<title>flag</title>
<path d="M3.375 26.625v-17.656c0.719-0.438 1.094-1.125 1.094-1.938 0-1.219-1-2.25-2.219-2.25-1.25 0-2.25 1.031-2.25 2.25 0 0.813 0.438 1.5 1.156 1.938v17.656c0 0.313 0.219 0.563 0.5 0.563h1.156c0.313 0 0.563-0.25 0.563-0.563zM4.469 9.969v10.125c0 0.594 0.313 0.844 0.688 0.563 0.719-0.531 1.344-0.938 1.906-1.219 1.156-0.531 1.969-0.781 2.719-0.813 0.938 0 1.656 0.188 2.375 0.531 0.688 0.313 1.313 0.813 2.031 1.281 0.406 0.25 0.906 0.406 1.469 0.438 0.938 0.063 2.25-0.156 3.781-1.406 0.344-0.281 0.625-1 0.625-1.531v-10.125c0-0.594-0.25-0.813-0.625-0.531-0.781 0.594-1.5 1-2.125 1.188-1.281 0.344-2.281 0.281-3.125-0.219-0.719-0.469-1.344-0.969-2.031-1.281-0.719-0.344-1.438-0.531-2.375-0.531-0.344 0-0.781 0.094-1.25 0.219-0.844 0.25-1.938 0.781-3.375 1.781-0.375 0.281-0.688 0.969-0.688 1.531z"></path>
</svg>