<?xml version="1.0" encoding="utf-8"?>

<!DOCTYPE svg PUBLIC "-//W3C//DTD SVG 1.1//EN" "http://www.w3.org/Graphics/SVG/1.1/DTD/svg11.dtd">
<!-- Uploaded to: SVG Repo, www.svgrepo.com, Generator: SVG Repo Mixer Tools -->
<svg height="800px" width="800px" version="1.1" id="_x32_" xmlns="http://www.w3.org/2000/svg" xmlns:xlink="http://www.w3.org/1999/xlink" 
	 viewBox="0 0 512 512"  xml:space="preserve">
<style type="text/css">
	.st0{fill:#000000;}
</style>
<g>
	<path class="st0" d="M491.474,170.741c2.105-6.957-1.818-14.306-8.783-16.42c-6.949-2.113-14.291,1.81-16.412,8.751v0.007
		l-0.007,0.016c-0.016,0.048-0.121,0.4-0.344,1.072c-0.873,2.602-3.427,9.671-8.014,19.166c-3.25,6.693-7.357,15.764-14.394,17.797
		c-9.103,0.648-16.557-2.145-24.931-3.09c-14.042-1.562-26.155,2.025-32.6,11.048c-2.138,2.978-3.499,6.357-4.156,10
		c17.693,0.752,35.602,6.989,53.512,18.701c1.754,1.153,3.45,2.306,5.1,3.491c17.668,12.641,30.406,28.028,37.795,45.361
		c2.77-1.713,5.14-3.891,7.029-6.533c6.277-8.783,5.965-20.976,0.384-33.417c-3.907-8.694-7.286-14.747-11.312-23.513
		c-4.027-8.767,3.042-19.742,6.709-27.213C488.239,181.317,491.298,171.262,491.474,170.741z"/>
	<path class="st0" d="M55.285,348.608c19.51,29.99,47.404,51.438,78.63,61.813c15.163-6.693,30.527-15.203,43.872-24.537
		c5.188-3.635,9.927-6.965,14.298-10.08c-5.188,0.88-10.423,1.337-15.683,1.305h-0.008c-32.08-0.208-62.382-17.454-81.044-46.139
		c-0.412-0.632-0.832-1.24-1.276-1.841c-13.41-18.165-16.945-40.646-18.766-62.23c-0.74-8.774,0.272-19.791,3.091-30.895
		c10.948,12.778,25.698,20.272,41.947,21c0.889,0.032,1.753,0.056,2.618,0.064c25.323,0.152,46.37-14.114,56.298-38.156
		c3.634-8.791,5.548-18.334,5.836-28.181c0.144-6.789,1.377-20.711,1.377-20.711c0.32,1.905,6.525,24.354,7.037,26.267
		c2.809,10.568,9.799,25.298,27.131,35.474c8.078,4.748,16.564,7.173,25.219,7.229c10.208,0.056,19.983-3.227,28.525-9.383
		c2.466,12.801,3.058,24.714,3.138,32.216c0,0.264,0,0.528,0.016,0.8c0.08,2.946,0.064,5.884-0.064,8.799
		c14.611-20.416,31.054-35.666,48.692-45.258c-2.962-33.304-13.73-79.81-48.884-105.797c10.039,28.221-8.126,71.044-33.577,56.097
		c-18.758-11.008-13.858-31.062,0.368-59.115c20.208-39.821-14.898-67.666-14.898-67.666s-6.71,50.638-44.986,41.951
		C151.456,84.198,150.143,22.44,164.337,0c-51.15,6.717-58.723,87.736-34.818,117.558c28.733,35.85,23.329,83.678-13.714,82.036
		c-26.928-1.193-39.365-38.252-25.078-74.767c-48.688,22.208-68.282,89.666-64.716,131.921
		C28.409,285.129,33.673,319.347,55.285,348.608z"/>
	<path class="st0" d="M424.2,253.09c-66.097-43.24-116.71,6.597-144.45,60.005c-23.402,45.064-34.674,54.648-87.704,91.763
		c-30.287,21.192-127.19,55.169-154.17,59.652c-30.058,4.979-20.347,35.786,14.583,41.326
		c47.575,7.542,172.883,14.379,253.471-19.518c50.517-21.255,78.53-29.854,122.289-78.61
		C457.185,375.452,496.373,300.309,424.2,253.09z M318.355,355.605c0,0-9.727-27.556,5.044-52.311
		c14.763-24.754,47.315-25.01,47.315-25.01L318.355,355.605z"/>
</g>
</svg>