<?xml version="1.0" encoding="utf-8"?>
<!-- Generator: Adobe Illustrator 26.4.1, SVG Export Plug-In . SVG Version: 6.00 Build 0)  -->
<svg version="1.1" id="_x32_" xmlns="http://www.w3.org/2000/svg" xmlns:xlink="http://www.w3.org/1999/xlink" x="0px" y="0px"
	 viewBox="0 0 800 800" style="enable-background:new 0 0 800 800;" xml:space="preserve">
<style type="text/css">
	.st0{fill:#FCBA63;}
	.st1{fill:#FF4B5A;}
</style>
<circle class="st0" cx="399.6" cy="399" r="399"/>
<g>
	<path class="st1" d="M775.4,176.3c-10.8-15.2-19.5-25.6-30.6-40.9c-11-15.3-1.6-39,2.6-54.8c8.3-30.8,10.3-51.3,10.5-52.4
		c1.4-14.1-8.9-26.8-23-28.2c-14.1-1.4-26.8,8.9-28.2,23l0,0l0,0c0,0.1-0.1,0.8-0.3,2.2c-0.7,5.3-2.9,19.9-8.1,39.8
		c-3.7,14.1-8.2,33-20.9,39.6c-17.2,4.7-32.6,2.1-49,3.5c-27.6,2.3-49.4,13.7-58.4,33.5c-3,6.5-4.3,13.5-4.2,20.8
		c34.2-5.2,71,0,109.8,15.7c3.8,1.6,7.5,3.1,11.1,4.8c38.7,17.6,68.9,42.3,89.6,72.8c4.7-4.3,8.4-9.4,11-15.2
		C796,221.4,790.8,198.1,775.4,176.3z"/>
	<path class="st1" d="M664.2,210.5c-142.8-59-221.9,55.3-255.7,168c-28.5,95.1-46.7,117.7-135,208.4
		C223,638.7,87.9,707.4,37.7,725.8c-55.9,20.6-26,76.2,43.1,74.1c94.2-2.9,298.8-3.5,441.2-98.1c89.3-59.3,140-86,206.3-195.7
		C772.2,433.6,820.1,274.9,664.2,210.5z M498.2,446.2c0,0-28.7-49.4-9.4-102.4c19.3-53,81.8-65.3,81.8-65.3L498.2,446.2z"/>
</g>
</svg>
