<?xml version="1.0" encoding="utf-8"?>

<!DOCTYPE svg PUBLIC "-//W3C//DTD SVG 1.1//EN" "http://www.w3.org/Graphics/SVG/1.1/DTD/svg11.dtd">
<!-- Uploaded to: SVG Repo, www.svgrepo.com, Generator: SVG Repo Mixer Tools -->
<svg height="800px" width="800px" version="1.1" id="_x32_" xmlns="http://www.w3.org/2000/svg" xmlns:xlink="http://www.w3.org/1999/xlink" 
	 viewBox="0 0 512 512"  xml:space="preserve">
<style type="text/css">
	.st0{fill:#000000;}
</style>
<g>
	<path class="st0" d="M496.269,112.839c-6.893-9.739-12.504-16.361-19.571-26.157c-7.064-9.796-1.031-24.98,1.673-35.04
		c5.294-19.736,6.624-32.821,6.714-33.506c0.913-9.055-5.69-17.138-14.744-18.052c-9.047-0.913-17.121,5.664-18.048,14.712
		l-0.007,0.015c0.007,0,0,0,0,0c-0.007,0.078-0.054,0.535-0.172,1.412c-0.442,3.41-1.862,12.708-5.215,25.479
		c-2.366,9.005-5.23,21.149-13.382,25.337c-11.028,2.997-20.845,1.362-31.362,2.233c-17.637,1.456-31.643,8.79-37.39,21.434
		c-1.906,4.174-2.754,8.648-2.686,13.285c21.918-3.346,45.428-0.014,70.243,10.053c2.44,0.992,4.802,2.005,7.11,3.054
		c24.762,11.266,44.116,27.092,57.372,46.598c2.986-2.776,5.377-6.022,7.056-9.718C509.454,141.671,506.129,126.773,496.269,112.839
		z"/>
	<path class="st0" d="M425.075,134.735c-91.395-37.729-141.993,35.375-163.626,107.546c-18.251,60.883-29.878,75.31-86.43,133.345
		c-32.293,33.135-118.765,77.094-150.89,88.909c-35.803,13.157-16.664,48.775,27.58,47.426c60.273-1.841,191.207-2.24,282.4-62.766
		c57.166-37.937,89.608-55.061,132.043-125.24C494.231,277.521,524.869,175.94,425.075,134.735z M318.846,285.541
		c0,0-18.394-31.616-6.018-65.507c12.376-33.891,52.353-41.818,52.353-41.818L318.846,285.541z"/>
</g>
</svg>