<?xml version="1.0" encoding="iso-8859-1"?>
<!-- Uploaded to: SVG Repo, www.svgrepo.com, Generator: SVG Repo Mixer Tools -->
<svg fill="#000000" height="800px" width="800px" version="1.1" id="Layer_1" xmlns="http://www.w3.org/2000/svg" xmlns:xlink="http://www.w3.org/1999/xlink" 
	 viewBox="0 0 512.001 512.001" xml:space="preserve">
<g>
	<g>
		<path d="M504.648,119.84c-4.45-1.104-9.061,1.057-11.057,5.183c-17.676,36.521-45.121,67.41-79.369,89.327
			c-35.162,22.501-75.922,34.395-117.871,34.395c-48.779,0-94.938-15.691-133.484-45.375
			c-37.626-28.974-90.191-27.095-124.989,4.468l-0.982,0.89c-1.803,1.635-3.531,3.334-5.192,5.082
			c-9.579-16.375-23.591-53.143,3.392-101.529c2.607-4.672,0.931-10.575-3.741-13.18c-4.676-2.607-10.575-0.93-13.181,3.742
			c-22.633,40.579-20.039,74.507-13.878,95.824c4.187,14.489,10.539,25.253,14.879,31.47C9.019,246.781,4.062,266.249,5.247,286.271
			c1.745,29.476,16.546,56.2,40.609,73.323c50.14,35.676,109.276,54.534,171.012,54.534c77.003,0,149.892-29.469,205.238-82.978
			c55.206-53.373,87.13-124.954,89.889-201.556C512.16,125.013,509.094,120.945,504.648,119.84z M49.39,296.324
			c-0.052,11.257-3.036,22.271-8.551,31.934c-9.565-12.24-15.304-27.179-16.249-43.133c-1.394-23.569,7.835-46.184,25.324-62.044
			l0.982-0.89c14.629-13.268,33.197-19.969,51.907-19.969c16.901,0,33.914,5.467,48.241,16.499c1.965,1.513,3.954,2.982,5.954,4.427
			c-10.181,6.292-21.944,9.676-34.12,9.676c-5.059,0-10.156-0.605-15.152-1.797c-2.563-0.615-5.275-0.151-7.495,1.278
			s-3.76,3.702-4.264,6.295c-4.227,21.713-19.706,40.171-40.395,48.171c-3.733,1.444-6.194,5.034-6.194,9.036
			C49.377,295.979,49.382,296.151,49.39,296.324z M408.637,317.218c-51.713,49.996-119.818,77.532-191.769,77.532
			c-57.687,0-112.937-17.617-159.777-50.946c-0.714-0.509-1.398-1.049-2.093-1.579c7.8-11.921,12.48-25.7,13.54-39.965
			c20.953-10.066,37.047-28.635,44.077-50.687c3.414,0.42,6.843,0.632,10.261,0.632c18.781,0,36.811-6.198,51.531-17.574
			c36.731,21.983,78.375,33.493,121.943,33.493c45.66,0,90.03-12.951,128.316-37.451c24.528-15.697,45.849-35.623,63.046-58.746
			C477.003,226.996,449.719,277.5,408.637,317.218z"/>
	</g>
</g>
</svg>