<?xml version="1.0" encoding="utf-8"?>
<!-- Generator: Adobe Illustrator 26.4.1, SVG Export Plug-In . SVG Version: 6.00 Build 0)  -->
<svg version="1.1" id="Layer_1" xmlns="http://www.w3.org/2000/svg" xmlns:xlink="http://www.w3.org/1999/xlink" x="0px" y="0px"
	 viewBox="0 0 288 288" enable-background="new 0 0 288 288" xml:space="preserve">
<g>
	<g id="Squares">
		<g>
			<path fill="#FF9E18" d="M270.2,143.94c0,0,0,0.04,0,0.06s0,0.04,0,0.06c0-0.04,0-0.09,0-0.13"/>
			<path fill="#D8F4FE" d="M144.2,18c-69.59,0-126,56.41-126,126s56.41,126,126,126s125.97-56.38,126-125.94
				c-0.02,3.05-1.18,6.1-3.5,8.42l-49.53,49.53c0,0-0.01,0.01-0.02,0.02l-64.46,64.46c-2.33,2.33-5.41,3.5-8.49,3.5
				s-6.15-1.17-8.49-3.5l-50.25-50.25c0,0-0.03-0.03-0.05-0.05l-63.72-63.72c-4.67-4.67-4.67-12.3,0-16.97l63.72-63.72
				c0,0,0.03-0.03,0.05-0.05l50.25-50.25c2.33-2.33,5.41-3.5,8.49-3.5s6.15,1.17,8.49,3.5l49.56,49.56l0,0l64.46,64.46
				c2.32,2.32,3.48,5.37,3.5,8.42c-0.03-69.56-56.43-125.94-126-125.94"/>
			<path fill="#FF919A" d="M144.2,18c-3.08,0-6.15,1.17-8.49,3.5L85.46,71.75c2.33-2.3,5.38-3.45,8.44-3.45s6.15,1.17,8.49,3.5
				l41.07,41.07l41.81-41.81c2.33-2.33,5.41-3.5,8.49-3.5s6.15,1.17,8.49,3.5L152.69,21.5C150.36,19.17,147.28,18,144.2,18"/>
			<path fill="#F3447F" d="M143.46,175.13l-41.07,41.07c-2.33,2.33-5.41,3.5-8.49,3.5s-6.11-1.15-8.44-3.45l50.25,50.25
				c2.33,2.33,5.41,3.5,8.49,3.5s6.15-1.17,8.49-3.5l64.46-64.46c0,0,0.01-0.01,0.02-0.02l-14.93,14.93
				c-2.33,2.33-5.41,3.5-8.49,3.5s-6.15-1.17-8.49-3.5l-41.81-41.81"/>
			<path fill="#FF9A18" d="M202.24,71.06l14.9,14.9c4.67,4.67,4.67,12.3,0,16.97L176.07,144l41.07,41.07
				c4.66,4.66,4.67,12.28,0.02,16.95l49.53-49.53c2.32-2.32,3.48-5.37,3.5-8.42c0-0.02,0-0.04,0-0.06s0-0.04,0-0.06
				c-0.02-3.05-1.18-6.1-3.5-8.42l-64.46-64.46l0,0"/>
			<path fill="#FF550E" d="M193.76,67.56c-3.08,0-6.15,1.17-8.49,3.5l-41.81,41.81l5.03,5.03c1.53,0.58,2.97,1.49,4.2,2.72
				l23.39,23.39l41.07-41.07c4.67-4.67,4.67-12.3,0-16.97l-14.9-14.9C199.92,68.74,196.84,67.57,193.76,67.56"/>
			<path fill="#F3260C" d="M176.08,144l-23.39,23.39c-1.23,1.23-2.67,2.14-4.2,2.72l-5.03,5.03l41.81,41.81
				c2.33,2.33,5.41,3.5,8.49,3.5s6.15-1.17,8.49-3.5l14.93-14.93c4.65-4.67,4.64-12.29-0.02-16.95L176.09,144"/>
			<path fill="#F31107" d="M148.49,117.89l17.62,17.62c4.67,4.67,4.67,12.3,0,16.97l-17.62,17.62c1.53-0.58,2.97-1.49,4.2-2.72
				l23.39-23.39l-23.39-23.39c-1.23-1.23-2.67-2.14-4.2-2.72"/>
			<path fill="#A8B2B5" d="M85.47,71.75c0,0-0.03,0.03-0.05,0.05L21.7,135.52c-4.67,4.67-4.67,12.3,0,16.97l63.72,63.72
				c0,0,0.03,0.03,0.05,0.05l-14.21-14.21c-4.67-4.67-4.67-12.3,0-16.97l41.07-41.07l-41.07-41.07c-4.67-4.67-4.67-12.3,0-16.97
				l14.21-14.21"/>
			<path fill="#A8646D" d="M93.91,68.3c-3.05,0-6.11,1.15-8.44,3.45L71.26,85.96c-4.67,4.67-4.67,12.3,0,16.97L112.33,144l8.44-8.44
				c0,0,0.03-0.03,0.05-0.05l22.65-22.65L102.4,71.79c-2.33-2.33-5.41-3.5-8.49-3.5"/>
			<path fill="#9F2D5A" d="M112.33,144l-41.07,41.07c-4.67,4.67-4.67,12.3,0,16.97l14.21,14.21c2.33,2.3,5.38,3.45,8.44,3.45
				s6.15-1.17,8.49-3.5l41.07-41.07l-22.65-22.65c0,0-0.03-0.03-0.05-0.05L112.33,144"/>
			<path fill="#9F1537" d="M120.76,135.56l-8.44,8.44l8.44,8.44c-4.6-4.65-4.6-12.22,0-16.87"/>
			<path fill="#A8390A" d="M143.46,112.87l-22.65,22.65c0,0-0.03,0.03-0.05,0.05l14.95-14.95c2.33-2.33,5.41-3.5,8.49-3.5
				c1.45,0,2.91,0.26,4.29,0.78L143.46,112.87"/>
			<path fill="#9F1709" d="M120.76,152.44c0,0,0.03,0.03,0.05,0.05l22.65,22.65l5.03-5.03c-1.38,0.52-2.83,0.78-4.29,0.78
				c-3.08,0-6.15-1.17-8.49-3.5L120.76,152.44"/>
			<path fill="#9F0905" d="M144.2,117.11c-3.08,0-6.15,1.17-8.49,3.5l-14.95,14.95c-4.6,4.65-4.6,12.22,0,16.87l14.95,14.95
				c2.33,2.33,5.41,3.5,8.49,3.5c1.45,0,2.91-0.26,4.29-0.78l17.62-17.62c4.67-4.67,4.67-12.3,0-16.97l-17.62-17.62
				C147.11,117.37,145.66,117.11,144.2,117.11"/>
		</g>
	</g>
</g>
</svg>
