<?xml version="1.0" encoding="UTF-8"?>
<svg xmlns="http://www.w3.org/2000/svg" viewBox="0 0 288 288">
  <defs>
    <style>
      .cls-1 {
        fill: none;
        stroke: #b5b5b5;
      }

      .cls-1, .cls-2, .cls-3, .cls-4 {
        stroke-miterlimit: 10;
        stroke-width: 38px;
      }

      .cls-5 {
        fill: #fff;
      }

      .cls-2 {
        fill: #fca45b;
        stroke: #ff8300;
      }

      .cls-3 {
        stroke: #f54882;
      }

      .cls-3, .cls-4 {
        fill: #ffbfbf;
      }

      .cls-4 {
        stroke: #ff7b8a;
      }
    </style>
  </defs>
  <g id="background_C" data-name="background C">
    <circle class="cls-5" cx="144" cy="144" r="126"/>
  </g>
  <g id="Stripes">
    <line class="cls-4" x1="52.01" y1="182.95" x2="182.95" y2="52.01"/>
    <line class="cls-2" x1="170.52" y1="117.48" x2="105.05" y2="52.01"/>
    <line class="cls-2" x1="235.99" y1="182.95" x2="170.52" y2="117.48"/>
    <line class="cls-3" x1="105.05" y1="235.99" x2="235.99" y2="105.05"/>
    <line class="cls-1" x1="182.95" y1="235.99" x2="52.01" y2="105.05"/>
  </g>
  <g id="Text">
    <g>
      <path class="cls-5" d="M83.78,136.8c.46-1.01,1.09-1.91,1.9-2.72,.92-.92,1.99-1.67,3.23-2.27,1.24-.59,2.5-.97,3.78-1.14,1.19-.15,2.52-.13,4,.06,1.48,.19,2.58,.65,3.3,1.38,.48,.48,.72,1.05,.74,1.72,0,1.01-.28,1.8-.84,2.36-.34,.34-.75,.54-1.24,.6s-.99-.04-1.51-.32c-1.31-.71-2.69-1.02-4.14-.92-1.45,.1-2.69,.66-3.71,1.68-.53,.53-.92,1.14-1.15,1.83-.23,.68-.24,1.35-.02,2.01,.19,.52,.48,.97,.86,1.35,.48,.48,.94,.66,1.38,.55,.23-.07,.39-.14,.47-.23,.1-.09,.13-.21,.1-.35-.03-.14-.1-.33-.23-.59-.19-.36-.29-.64-.29-.86,0-.49,.27-1.01,.82-1.56,.37-.37,.74-.62,1.11-.74,.9-.3,1.74-.06,2.52,.72,.64,.64,1.08,1.47,1.31,2.48,.23,1.01,.16,1.85-.21,2.52-.41,.71-.83,1.29-1.27,1.72-.88,.88-1.87,1.42-2.98,1.63-1.12,.21-2.22,.12-3.33-.28-1.11-.4-2.08-1.02-2.93-1.87-.72-.72-1.3-1.57-1.71-2.53-.42-.96-.63-1.99-.65-3.07,0-1.12,.23-2.18,.69-3.19Z"/>
      <path class="cls-5" d="M93.08,153.22c-.3-.3-.34-.72-.12-1.25,.22-.53,.47-.97,.75-1.32,.28-.35,.71-.85,1.28-1.51l.61-.66c.25-.25,.54-.53,.89-.85,.35-.32,.62-.56,.81-.73,.27-.22,.46-.38,.57-.49,.21-.21,.37-.35,.49-.45,.48-.48,.9-.84,1.26-1.1,.36-.25,.74-.37,1.14-.36,.55,0,.94,.12,1.17,.35,.4,.4,.37,.96-.08,1.7-.45,.74-1.05,1.54-1.79,2.42-.3,.38-.62,.74-.96,1.09-.68,.68-1.52,1.39-2.52,2.11l-.49,.37c-.45,.37-.85,.65-1.19,.84-.34,.19-.68,.26-1,.21-.36-.05-.63-.18-.82-.37Zm9.33-11.46c.31-.31,.68-.49,1.09-.53s.75,.07,1,.33c.3,.3,.4,.75,.29,1.35-.07,.4-.24,.73-.51,1-.3,.3-.66,.46-1.09,.47s-.77-.11-1.03-.37c-.36-.36-.44-.83-.25-1.44,.1-.32,.26-.59,.49-.82Z"/>
      <path class="cls-5" d="M103.06,163.24c.4-.7,.96-1.56,1.68-2.58l.63-.88c.34-.51,.59-.91,.75-1.2s.24-.62,.25-.96c0-.35-.15-.68-.46-.99-.31-.31-.69-.52-1.14-.63-.44-.1-.95-.15-1.53-.15-.46-.03-.81,.02-1.03,.14-.22,.12-.43,.29-.64,.49l-.43,.43c-.53,.48-1.13,.85-1.8,1.13s-1.17,.24-1.52-.1c-.25-.25-.37-.68-.37-1.31,0-1.09,.69-2.33,2.07-3.71,.1-.1,.55-.51,1.37-1.25,.92-.81,1.82-1.48,2.72-2.02,.89-.54,1.79-.83,2.68-.87,.56-.04,.96,.05,1.19,.29,.34,.34,.29,.9-.15,1.67-.44,.77-.96,1.47-1.55,2.08,.85,0,1.64,.13,2.39,.4,.75,.27,1.36,.64,1.84,1.12,.48,.48,.78,1.04,.91,1.69,.13,.65,.05,1.38-.24,2.18-.81,2.23-2.65,4.78-5.52,7.65-.41,.41-.87,.71-1.37,.9-.51,.19-.89,.16-1.15-.1-.23-.23-.32-.66-.27-1.29,.05-.71,.28-1.42,.68-2.11Z"/>
      <path class="cls-5" d="M102.65,174.73c.14-.14,.3-.29,.49-.45,.19-.17,.34-.29,.45-.37,1.4-1.09,2.93-1.9,4.59-2.42,.89-.29,1.82-.49,2.79-.62,.08-.03,.35-.04,.8-.02,.48-.01,.85-.04,1.12-.09,.27-.05,.5-.15,.69-.32-.83,.04-1.64-.04-2.43-.24-.79-.2-1.41-.52-1.86-.97-.62-.62-.83-1.43-.64-2.44,.19-.96,.68-1.83,1.46-2.6,.89-.89,2-1.54,3.32-1.97,1.07-.33,2.12-.42,3.17-.28,1.05,.14,1.92,.56,2.61,1.26,.34,.34,.62,.71,.82,1.11,.64,1.22,.74,2.39,.3,3.52-.44,1.13-1.23,2.29-2.35,3.5,2.3,.55,3.81,1.19,4.55,1.93,.63,.63,.62,1.27-.04,1.93-.42,.42-.95,.65-1.59,.67-.63,.02-1.35-.07-2.14-.26l-1.19-.33-.8-.23-1.09-.22c-.48-.1-.78-.14-.9-.12-.12,.01-.38,.13-.76,.35-.6,.38-1.43,.96-2.48,1.74-.93,.68-1.72,1.23-2.36,1.64-.64,.41-1.36,.75-2.16,1.04s-1.64,.41-2.53,.4c-.51-.01-.99-.1-1.46-.25-.46-.15-.84-.37-1.13-.66-.42-.42-.63-.97-.62-1.64,.04-.86,.49-1.72,1.35-2.58Zm2.59,2.22c.54-.17,1.09-.41,1.66-.72,.57-.31,.95-.53,1.14-.67,.3-.25,.74-.63,1.31-1.15-.52,.08-1.39,.32-2.61,.71s-2.03,.77-2.41,1.16c-.23,.23-.27,.44-.12,.62,.15,.2,.5,.22,1.04,.05Zm12.44-9.67c-.06-.08-.15-.19-.29-.33-.36-.36-.81-.58-1.36-.69-.55-.1-1.1-.07-1.63,.11-.29,.1-.53,.24-.72,.43-.16,.16-.25,.33-.27,.51-.01,.18,.05,.34,.18,.47,.21,.21,.55,.3,1.02,.29,.72-.07,1.74-.34,3.06-.8Z"/>
      <path class="cls-5" d="M122.28,187.67c-.33-.33-.37-.9-.12-1.72,.1-.31,.23-.6,.41-.86,.18-.26,.46-.63,.86-1.11,.46-.55,.82-1.03,1.06-1.45,.24-.42,.36-.87,.36-1.36-1.26-.08-2.29-.19-3.09-.34-.8-.14-1.42-.43-1.86-.87-.64-.64-.59-1.54,.17-2.71,.5-.81,1.2-1.65,2.07-2.52,.81-.81,1.7-1.58,2.69-2.34,.98-.75,2.09-1.55,3.32-2.4l.49-.37c.81-.59,1.51-1.06,2.12-1.4,.61-.35,1.21-.59,1.81-.73,.34-.07,.66-.06,.96,.02,.3,.08,.55,.22,.76,.43,.29,.29,.45,.65,.5,1.08,.05,.43-.06,.84-.32,1.24-.2,.29-.44,.57-.72,.84-.45,.45-1.21,1.05-2.28,1.78-.88,.6-1.5,1.07-1.87,1.42-.41,.36-.71,.63-.9,.82-1.61,1.45-2.84,2.48-3.67,3.1,1.83,0,3.05,.3,3.65,.9,.44,.44,.58,1.03,.43,1.79-.15,.67-.48,1.34-1,2.01-.52,.67-1.21,1.45-2.07,2.34-.12,.15-.31,.35-.55,.59l-.45,.49c-.27,.33-.51,.59-.72,.8-.56,.56-1.04,.83-1.46,.8-.23-.01-.43-.1-.59-.27Z"/>
      <path class="cls-5" d="M133.45,192.67c.15-.46,.37-.87,.65-1.22,.28-.35,.67-.78,1.16-1.3-.81,.12-1.62,.07-2.44-.16-.82-.23-1.5-.62-2.03-1.15-.42-.42-.7-.92-.84-1.48-.14-.56-.1-1.17,.12-1.83,.31-.89,.83-1.69,1.54-2.4,.57-.57,1.24-1.07,1.99-1.48,.75-.41,1.52-.7,2.3-.88,.93-.22,1.87-.23,2.83-.04,.96,.19,1.71,.57,2.28,1.13,.75,.75,1.02,1.76,.8,3.01-.18,.94-.35,1.63-.5,2.06s-.5,.92-1.02,1.47l-3.73,3.98c-.1,.1-.2,.21-.32,.36-.12,.14-.26,.3-.44,.48-.9,.9-1.59,1.12-2.07,.64-.33-.33-.42-.72-.27-1.19Zm3.35-6.04c.61-.09,1.1-.21,1.47-.36,.25-.08,.45-.2,.62-.37s.25-.33,.27-.49c.01-.17-.05-.32-.18-.45-.08-.08-.2-.16-.35-.23-.26-.12-.64-.15-1.14-.07-.5,.08-.93,.2-1.28,.36-.25,.11-.45,.25-.62,.41-.31,.31-.31,.64,0,.98,.21,.23,.61,.3,1.22,.21Z"/>
      <path class="cls-5" d="M146.1,205.4c.4-.79,.98-1.78,1.74-2.95,.33-.49,.59-.92,.78-1.27-.08,.11-.64,.07-1.68-.12s-1.65-.32-1.83-.39c-.3-.17-.51-.31-.63-.43-.27-.27-.41-.59-.41-.94,0-.36,.06-.68,.17-.97s.32-.75,.6-1.36c.38-.79,.4-1.37,.04-1.72-.23-.23-.7-.38-1.39-.45-.59-.04-1.13,.09-1.63,.4-.5,.31-1.09,.78-1.77,1.41-.56,.5-.98,.86-1.27,1.07-.77,.55-1.33,.64-1.68,.29-.19-.19-.28-.5-.26-.93,.02-.43,.15-.88,.4-1.34,.56-1,1.39-2.04,2.48-3.14,.62-.62,1.22-1.17,1.8-1.68l.45-.41c.82-.76,1.56-1.37,2.21-1.8,.66-.44,1.3-.64,1.93-.61,.48,.01,.83,.14,1.07,.37,.26,.26,.34,.61,.23,1.05-.1,.45-.3,.89-.6,1.34-.3,.45-.6,.8-.9,1.05,.49-.05,.96,0,1.42,.14s.84,.39,1.17,.72c.3,.3,.52,.66,.66,1.07,.25,.68,.2,1.46-.14,2.32-.05,.16-.18,.4-.37,.7-.29,.45-.44,.79-.45,1.02,.7,.15,1.26,.3,1.7,.45s.81,.38,1.11,.68c.45,.45,.67,1.07,.66,1.85-.04,1.46-.85,3.31-2.42,5.54-.22,.33-.58,.75-1.09,1.25-1.15,1.15-1.93,1.51-2.36,1.09-.16-.16-.26-.51-.29-1.03-.03-.68,.16-1.42,.55-2.21Z"/>
    </g>
  </g>
</svg>