<?xml version="1.0" encoding="utf-8"?>
<!-- Generator: Adobe Illustrator 26.4.1, SVG Export Plug-In . SVG Version: 6.00 Build 0)  -->
<svg version="1.1" id="Layer_1" xmlns="http://www.w3.org/2000/svg" xmlns:xlink="http://www.w3.org/1999/xlink" x="0px" y="0px"
	 viewBox="0 0 288 288" enable-background="new 0 0 288 288" xml:space="preserve">
<g>
	<g id="Squares">
		<g>
			<path fill="#FFFFFF" d="M144.2,18c-69.59,0-126,56.41-126,126s56.41,126,126,126s125.97-56.38,126-125.94
				c-0.02,3.05-1.18,6.1-3.5,8.42l-49.51,49.51c0,0-0.03,0.03-0.05,0.05l-64.46,64.46c-2.33,2.33-5.41,3.5-8.49,3.5
				s-6.15-1.17-8.49-3.5l-50.25-50.25c0,0-0.03-0.03-0.05-0.05l-63.72-63.72c-4.67-4.67-4.67-12.3,0-16.97L85.4,71.79
				c0,0,0.03-0.03,0.05-0.05l50.25-50.25c2.33-2.33,5.41-3.5,8.49-3.5s6.15,1.17,8.49,3.5l49.56,49.56l0,0l64.46,64.46
				c2.32,2.32,3.48,5.37,3.5,8.42c-0.03-69.56-56.43-125.94-126-125.94"/>
			<path fill="#FF959A" d="M144.2,18c-3.08,0-6.15,1.17-8.49,3.5L85.46,71.75c2.33-2.3,5.38-3.45,8.44-3.45s6.15,1.17,8.49,3.5
				l41.07,41.07l41.81-41.81c2.33-2.33,5.41-3.5,8.49-3.5s6.15,1.17,8.49,3.5L152.69,21.5C150.36,19.17,147.28,18,144.2,18"/>
			<path fill="#F44C7F" d="M143.46,175.13l-41.07,41.07c-2.33,2.33-5.41,3.5-8.49,3.5s-6.11-1.15-8.44-3.45l50.25,50.25
				c2.33,2.33,5.41,3.5,8.49,3.5s6.15-1.17,8.49-3.5l64.46-64.46c0,0,0.03-0.03,0.05-0.05l-14.95,14.95
				c-2.33,2.33-5.41,3.5-8.49,3.5s-6.15-1.17-8.49-3.5L143.46,175.13"/>
			<path fill="#FF9E18" d="M270.2,143.94c0,0,0,0.04,0,0.06s0,0.04,0,0.06c0-0.04,0-0.09,0-0.13"/>
			<path fill="#FF9E18" d="M202.24,71.06l14.9,14.9c4.67,4.67,4.67,12.3,0,16.97L176.07,144l41.07,41.07
				c4.65,4.65,4.67,12.25,0.05,16.92l49.51-49.51c2.32-2.32,3.48-5.37,3.5-8.42c0-0.02,0-0.04,0-0.06s0-0.04,0-0.06
				c-0.02-3.05-1.18-6.1-3.5-8.42L202.24,71.06L202.24,71.06"/>
			<path fill="#FF5C0E" d="M193.76,67.56c-3.08,0-6.15,1.17-8.49,3.5l-41.81,41.81l5.03,5.03c1.53,0.58,2.97,1.49,4.2,2.72
				l23.39,23.39l41.07-41.07c4.67-4.67,4.67-12.3,0-16.97l-14.9-14.9C199.92,68.74,196.84,67.57,193.76,67.56"/>
			<path fill="#F42F0C" d="M176.08,144l-23.39,23.39c-1.23,1.23-2.67,2.14-4.2,2.72l-5.03,5.03l41.81,41.81
				c2.33,2.33,5.41,3.5,8.49,3.5s6.15-1.17,8.49-3.5L217.2,202c4.62-4.67,4.6-12.27-0.05-16.92l-41.07-41.07"/>
			<path fill="#F41B07" d="M148.49,117.89l17.62,17.62c4.67,4.67,4.67,12.3,0,16.97l-17.62,17.62c1.53-0.58,2.97-1.49,4.2-2.72
				l23.39-23.39l-23.39-23.39c-1.23-1.23-2.67-2.14-4.2-2.72"/>
			<path fill="#B5B5B5" d="M85.47,71.75c0,0-0.03,0.03-0.05,0.05L21.7,135.52c-4.67,4.67-4.67,12.3,0,16.97l63.72,63.72
				c0,0,0.03,0.03,0.05,0.05l-14.21-14.21c-4.67-4.67-4.67-12.3,0-16.97l41.07-41.07l-41.07-41.07c-4.67-4.67-4.67-12.3,0-16.97
				l14.21-14.21"/>
			<path fill="#B56A6D" d="M93.91,68.3c-3.05,0-6.11,1.15-8.44,3.45L71.26,85.96c-4.67,4.67-4.67,12.3,0,16.97L112.33,144l8.44-8.44
				c0,0,0.03-0.03,0.05-0.05l22.65-22.65L102.4,71.79c-2.33-2.33-5.41-3.5-8.49-3.5"/>
			<path fill="#AD365A" d="M112.33,144l-41.07,41.07c-4.67,4.67-4.67,12.3,0,16.97l14.21,14.21c2.33,2.3,5.38,3.45,8.44,3.45
				s6.15-1.17,8.49-3.5l41.07-41.07l-22.65-22.65c0,0-0.03-0.03-0.05-0.05L112.33,144"/>
			<path fill="#AD1F37" d="M120.76,135.56l-8.44,8.44l8.44,8.44c-4.6-4.65-4.6-12.22,0-16.87"/>
			<path fill="#B5410A" d="M143.46,112.87l-22.65,22.65c0,0-0.03,0.03-0.05,0.05l14.95-14.95c2.33-2.33,5.41-3.5,8.49-3.5
				c1.45,0,2.91,0.26,4.29,0.78L143.46,112.87"/>
			<path fill="#AD2109" d="M120.76,152.44c0,0,0.03,0.03,0.05,0.05l22.65,22.65l5.03-5.03c-1.38,0.52-2.83,0.78-4.29,0.78
				c-3.08,0-6.15-1.17-8.49-3.5L120.76,152.44"/>
			<path fill="#AD1305" d="M144.2,117.11c-3.08,0-6.15,1.17-8.49,3.5l-14.95,14.95c-4.6,4.65-4.6,12.22,0,16.87l14.95,14.95
				c2.33,2.33,5.41,3.5,8.49,3.5c1.45,0,2.91-0.26,4.29-0.78l17.62-17.62c4.67-4.67,4.67-12.3,0-16.97l-17.62-17.62
				C147.11,117.37,145.66,117.11,144.2,117.11"/>
		</g>
		<g id="Cera">
			<g>
				<path fill="#FFFFFF" d="M47.34,141.48c0-8.34,6.71-14.71,15.44-14.71c3.48,0,7.01,1.16,9.29,3.1c1.85,1.68,2.62,2.92,2.62,4.3
					c0,1.81-1.55,3.31-3.35,3.31c-1.16,0-1.98-0.43-3.05-1.55c-1.55-1.59-3.35-2.37-5.63-2.37c-4.69,0-7.74,3.1-7.74,7.91
					s3.23,8.13,8.17,8.13c2.62,0,4.82-0.9,6.24-2.54v-1.33h-3.74c-1.89,0-3.31-1.38-3.31-3.18s1.42-3.18,3.31-3.18h7.4
					c2.15,0,3.74,1.59,3.74,3.74v3.1c0,1.55-0.3,2.62-1.07,3.78c-2.54,3.7-7.74,6.19-12.86,6.19c-8.73,0-15.44-6.36-15.44-14.71
					L47.34,141.48z"/>
				<path fill="#FFFFFF" d="M89.71,126.56c0,2.37-2.02,4.21-4.43,4.21s-4.39-1.85-4.39-4.21s1.98-4.26,4.39-4.26
					S89.71,124.15,89.71,126.56z M81.63,152.45V137.4c0-2.15,1.55-3.74,3.7-3.74s3.7,1.59,3.7,3.74v15.05c0,2.15-1.55,3.74-3.7,3.74
					S81.63,154.6,81.63,152.45z"/>
				<path fill="#FFFFFF" d="M115.84,142.42v10.02c0,2.15-1.59,3.74-3.7,3.74s-3.7-1.59-3.7-3.74v-8.94c0-1.89-1.29-3.18-3.14-3.18
					s-3.1,1.29-3.1,3.18v8.94c0,2.15-1.59,3.74-3.7,3.74s-3.7-1.59-3.7-3.74v-15.05c0-2.15,1.55-3.74,3.61-3.74
					c1.5,0,2.71,0.86,3.27,2.15c1.5-1.33,3.61-2.15,5.93-2.15c4.99,0,8.21,3.44,8.21,8.77H115.84z"/>
				<path fill="#FFFFFF" d="M143.56,137.39v15.65c0,6.97-4.17,10.88-11.52,10.88c-3.57,0-6.71-0.9-9.2-2.67
					c-1.03-0.69-1.59-1.72-1.59-2.75c0-1.81,1.46-3.27,3.27-3.27c0.6,0,1.25,0.21,1.93,0.64c1.5,0.95,3.1,1.42,4.82,1.42
					c3.05,0,4.9-1.42,4.9-3.78v-0.77c-1.33,1.29-3.22,1.98-5.63,1.98c-6.06,0-10.19-4.3-10.19-10.58s4.13-10.49,10.19-10.49
					c2.67,0,4.69,0.82,6.06,2.45c0.47-1.46,1.76-2.45,3.4-2.45C142.06,133.65,143.57,135.24,143.56,137.39L143.56,137.39z
					 M136.29,144.01c0-2.58-1.63-4.26-4.17-4.26s-4.21,1.72-4.21,4.3s1.76,4.56,4.21,4.56S136.29,146.72,136.29,144.01z"/>
				<path fill="#FFFFFF" d="M170.51,142.42v10.02c0,2.15-1.59,3.74-3.7,3.74s-3.7-1.59-3.7-3.74v-8.94c0-1.89-1.29-3.18-3.14-3.18
					s-3.1,1.29-3.1,3.18v8.94c0,2.15-1.59,3.74-3.7,3.74s-3.7-1.59-3.7-3.74v-25.8c0-2.15,1.59-3.74,3.7-3.74s3.7,1.59,3.7,3.74
					v9.03c1.46-1.29,3.4-2.02,5.59-2.02c4.82,0,8.04,3.53,8.04,8.77H170.51z"/>
				<path fill="#FFFFFF" d="M195.34,143.2v9.29c0,2.11-1.5,3.65-3.57,3.65c-1.5,0-2.75-0.82-3.31-2.11
					c-1.5,1.38-3.61,2.15-6.02,2.15c-4.43,0-7.44-2.67-7.44-6.62s3.14-6.45,8.43-6.45h4.51v-0.34c0-1.76-1.2-2.75-3.31-2.75
					c-1.2,0-2.28,0.34-3.4,1.07c-0.86,0.56-1.33,0.73-1.98,0.73c-1.76,0-3.1-1.33-3.1-3.01c0-1.08,0.56-2.06,1.59-2.88
					c1.81-1.46,4.56-2.28,7.7-2.28c6.36,0,9.89,3.44,9.89,9.55H195.34z M187.94,147.8v-0.17h-3.48c-1.25,0-1.98,0.6-1.98,1.63
					s0.82,1.68,2.19,1.68C186.6,150.94,187.94,149.69,187.94,147.8L187.94,147.8z"/>
				<path fill="#FFFFFF" d="M235.25,142.42v10.02c0,2.15-1.59,3.74-3.7,3.74s-3.7-1.59-3.7-3.74v-8.94c0-1.93-1.2-3.18-3.05-3.18
					s-2.97,1.25-2.97,3.18v8.94c0,2.15-1.59,3.74-3.7,3.74s-3.7-1.59-3.7-3.74v-8.94c0-1.93-1.2-3.18-3.05-3.18
					s-2.97,1.25-2.97,3.18v8.94c0,2.15-1.59,3.74-3.7,3.74s-3.7-1.59-3.7-3.74v-15.05c0-2.15,1.55-3.74,3.61-3.74
					c1.5,0,2.71,0.82,3.23,2.11c1.5-1.33,3.53-2.11,5.8-2.11c2.62,0,4.77,0.99,6.23,2.75c1.72-1.72,4.26-2.75,7.05-2.75
					c5.07,0,8.3,3.4,8.3,8.77H235.25z"/>
			</g>
		</g>
	</g>
</g>
</svg>
