<?xml version="1.0" encoding="utf-8"?>
<!-- Generator: Adobe Illustrator 26.4.1, SVG Export Plug-In . SVG Version: 6.00 Build 0)  -->
<svg version="1.1" id="Layer_1" xmlns="http://www.w3.org/2000/svg" xmlns:xlink="http://www.w3.org/1999/xlink" x="0px" y="0px"
	 viewBox="0 0 288 288" enable-background="new 0 0 288 288" xml:space="preserve">
<g>
	<path fill="#FF9E18" d="M270.2,143.94c0,0.02,0,0.04,0,0.06s0,0.04,0,0.06C270.2,144.02,270.2,143.98,270.2,143.94"/>
	<path fill="#D8F4FE" d="M18.2,144c0,69.59,56.41,126,126,126c69.57,0,125.97-56.38,126-125.94c-0.02,3.05-1.18,6.1-3.5,8.42
		l-49.53,49.53c-0.01,0.01-0.01,0.01-0.02,0.02l-64.46,64.46c-2.33,2.33-5.41,3.5-8.49,3.5s-6.15-1.17-8.49-3.5l-48.97-48.97
		c-0.23-0.2-0.45-0.41-0.67-0.62l-64.34-64.34C19.38,150.21,18.2,147.11,18.2,144 M144.2,18c-69.59,0-126,56.41-126,126l0,0
		c0-3.11,1.18-6.21,3.53-8.57l64.34-64.34c0.22-0.22,0.44-0.43,0.67-0.62l48.97-48.97C138.05,19.17,141.13,18,144.2,18
		c3.08,0,6.15,1.17,8.49,3.5l49.56,49.56l0,0l64.46,64.46c2.32,2.32,3.48,5.37,3.5,8.42C270.17,74.38,213.77,18,144.2,18"/>
	<path fill="#FF919A" d="M144.2,18c-3.08,0-6.15,1.17-8.49,3.5L86.75,70.47c2.26-1.94,5.08-2.91,7.9-2.91
		c3.11,0,6.21,1.18,8.57,3.53l41.01,41.01l41.05-41.05c2.33-2.33,5.41-3.5,8.49-3.5s6.15,1.17,8.49,3.5L152.69,21.5
		C150.36,19.17,147.28,18,144.2,18"/>
	<path fill="#F3447F" d="M144.23,175.9l-41.01,41.01c-2.36,2.36-5.46,3.53-8.57,3.53c-2.82,0-5.64-0.97-7.9-2.91l48.97,48.97
		c2.33,2.33,5.41,3.5,8.49,3.5s6.15-1.17,8.49-3.5l64.46-64.46c0.01-0.01,0.01-0.01,0.02-0.02l-14.93,14.93
		c-2.33,2.33-5.41,3.5-8.49,3.5s-6.15-1.17-8.49-3.5L144.23,175.9"/>
	<path fill="#FF9A18" d="M202.24,71.06l14.9,14.9c4.67,4.67,4.67,12.3,0,16.97L176.08,144l41.07,41.07
		c4.66,4.66,4.67,12.28,0.02,16.95l49.53-49.53c2.32-2.32,3.48-5.37,3.5-8.42c0-0.02,0-0.04,0-0.06s0-0.04,0-0.06
		c-0.02-3.05-1.18-6.1-3.5-8.42L202.24,71.06L202.24,71.06"/>
	<path fill="#FF550E" d="M193.76,67.56c-3.08,0-6.15,1.17-8.49,3.5l-41.05,41.05l23.33,23.33c0.22,0.22,0.43,0.44,0.62,0.67l7.9,7.9
		l41.07-41.07c4.67-4.67,4.67-12.3,0-16.97l-14.9-14.9C199.91,68.72,196.84,67.56,193.76,67.56"/>
	<path fill="#F3260C" d="M176.08,144l-7.9,7.9c-0.2,0.23-0.41,0.45-0.62,0.67l-23.33,23.33l41.05,41.05c2.33,2.33,5.41,3.5,8.49,3.5
		s6.15-1.17,8.49-3.5l14.93-14.93c4.64-4.67,4.64-12.29-0.02-16.95L176.08,144"/>
	<path fill="#F31107" d="M168.18,136.1c3.88,4.52,3.88,11.28,0,15.79l7.9-7.9L168.18,136.1"/>
	<path fill="#A8B2B5" d="M86.75,70.47c-0.23,0.2-0.45,0.41-0.67,0.62l-64.34,64.34c-2.36,2.36-3.53,5.46-3.53,8.57l0,0
		c0,3.11,1.18,6.21,3.53,8.57l64.34,64.34c0.22,0.22,0.44,0.43,0.67,0.62l-15.49-15.49c-4.67-4.67-4.67-12.3,0-16.97L112.33,144
		l-41.07-41.07c-4.67-4.67-4.67-12.3,0-16.97L86.75,70.47"/>
	<path fill="#A8646D" d="M94.65,67.56c-2.82,0-5.64,0.97-7.9,2.91L71.26,85.96c-4.67,4.67-4.67,12.3,0,16.97L112.33,144l8.44-8.44
		c0.02-0.02,0.03-0.03,0.05-0.05l23.41-23.41l-41.01-41.01C100.86,68.73,97.75,67.56,94.65,67.56"/>
	<path fill="#9F2D5A" d="M112.33,144l-41.07,41.07c-4.67,4.67-4.67,12.3,0,16.97l15.49,15.49c2.26,1.94,5.08,2.91,7.9,2.91
		c3.11,0,6.21-1.18,8.57-3.53l41.01-41.01l-23.41-23.41c-0.02-0.02-0.03-0.03-0.05-0.05L112.33,144"/>
	<path fill="#9F1537" d="M120.76,135.56l-8.44,8.44l8.44,8.44C116.16,147.78,116.16,140.22,120.76,135.56"/>
	<path fill="#A8390A" d="M144.23,112.1l-23.41,23.41c-0.02,0.02-0.03,0.03-0.05,0.05l14.95-14.95c2.33-2.33,5.41-3.5,8.49-3.5
		s6.15,1.17,8.49,3.5l15.49,15.49c-0.2-0.23-0.41-0.45-0.62-0.67L144.23,112.1"/>
	<path fill="#9F1709" d="M168.18,151.9l-15.49,15.49c-2.33,2.33-5.41,3.5-8.49,3.5s-6.15-1.17-8.49-3.5l-14.95-14.95
		c0.02,0.02,0.03,0.03,0.05,0.05l23.41,23.41l23.33-23.33C167.78,152.35,167.98,152.13,168.18,151.9"/>
	<path fill="#9F0905" d="M144.2,117.11c-3.08,0-6.15,1.17-8.49,3.5l-14.95,14.95c-4.6,4.65-4.6,12.22,0,16.87l14.95,14.95
		c2.33,2.33,5.41,3.5,8.49,3.5s6.15-1.17,8.49-3.5l15.49-15.49c3.88-4.52,3.88-11.28,0-15.79l-15.49-15.49
		C150.36,118.28,147.28,117.11,144.2,117.11"/>
</g>
<g id="Cera">
	<g>
		<path fill="#FFFFFF" d="M73.13,137.39v15.65c0,6.97-4.17,10.88-11.52,10.88c-3.57,0-6.71-0.9-9.2-2.67
			c-1.03-0.69-1.59-1.72-1.59-2.75c0-1.81,1.46-3.27,3.27-3.27c0.6,0,1.25,0.21,1.93,0.64c1.51,0.95,3.1,1.42,4.82,1.42
			c3.05,0,4.9-1.42,4.9-3.78v-0.77c-1.33,1.29-3.22,1.98-5.63,1.98c-6.06,0-10.19-4.3-10.19-10.58c0-6.24,4.13-10.49,10.19-10.49
			c2.67,0,4.69,0.82,6.06,2.45c0.47-1.46,1.76-2.45,3.4-2.45C71.63,133.65,73.13,135.24,73.13,137.39z M65.87,144.01
			c0-2.58-1.63-4.26-4.17-4.26s-4.21,1.72-4.21,4.3c0,2.67,1.76,4.56,4.21,4.56C64.15,148.61,65.87,146.72,65.87,144.01z"/>
		<path fill="#FFFFFF" d="M87.1,126.56c0,2.37-2.02,4.21-4.43,4.21s-4.39-1.85-4.39-4.21c0-2.41,1.98-4.26,4.39-4.26
			C85.08,122.3,87.1,124.15,87.1,126.56z M79.01,152.44v-15.05c0-2.15,1.55-3.74,3.7-3.74c2.11,0,3.7,1.59,3.7,3.74v15.05
			c0,2.15-1.55,3.74-3.7,3.74C80.6,156.18,79.01,154.59,79.01,152.44z"/>
		<path fill="#FFFFFF" d="M113.22,142.42v10.02c0,2.15-1.59,3.74-3.7,3.74s-3.7-1.59-3.7-3.74v-8.94c0-1.89-1.29-3.18-3.14-3.18
			s-3.1,1.29-3.1,3.18v8.94c0,2.15-1.59,3.74-3.7,3.74s-3.7-1.59-3.7-3.74v-15.05c0-2.15,1.55-3.74,3.61-3.74
			c1.5,0,2.71,0.86,3.27,2.15c1.5-1.33,3.61-2.15,5.93-2.15C110,133.65,113.22,137.09,113.22,142.42z"/>
		<path fill="#FFFFFF" d="M140.95,137.39v15.65c0,6.97-4.17,10.88-11.52,10.88c-3.57,0-6.71-0.9-9.2-2.67
			c-1.03-0.69-1.59-1.72-1.59-2.75c0-1.81,1.46-3.27,3.27-3.27c0.6,0,1.25,0.21,1.93,0.64c1.51,0.95,3.1,1.42,4.82,1.42
			c3.05,0,4.9-1.42,4.9-3.78v-0.77c-1.33,1.29-3.22,1.98-5.63,1.98c-6.06,0-10.19-4.3-10.19-10.58c0-6.24,4.13-10.49,10.19-10.49
			c2.67,0,4.69,0.82,6.06,2.45c0.47-1.46,1.76-2.45,3.4-2.45C139.44,133.65,140.95,135.24,140.95,137.39z M133.68,144.01
			c0-2.58-1.63-4.26-4.17-4.26c-2.54,0-4.21,1.72-4.21,4.3c0,2.67,1.76,4.56,4.21,4.56C131.96,148.61,133.68,146.72,133.68,144.01z"
			/>
		<path fill="#FFFFFF" d="M167.89,142.42v10.02c0,2.15-1.59,3.74-3.7,3.74s-3.7-1.59-3.7-3.74v-8.94c0-1.89-1.29-3.18-3.14-3.18
			s-3.1,1.29-3.1,3.18v8.94c0,2.15-1.59,3.74-3.7,3.74s-3.7-1.59-3.7-3.74v-25.8c0-2.15,1.59-3.74,3.7-3.74s3.7,1.59,3.7,3.74v9.03
			c1.46-1.29,3.4-2.02,5.59-2.02C164.67,133.65,167.89,137.18,167.89,142.42z"/>
		<path fill="#FFFFFF" d="M192.72,143.2v9.29c0,2.11-1.5,3.65-3.57,3.65c-1.5,0-2.75-0.82-3.31-2.11c-1.5,1.38-3.61,2.15-6.02,2.15
			c-4.43,0-7.44-2.67-7.44-6.62c0-4.04,3.14-6.45,8.43-6.45h4.51v-0.34c0-1.76-1.2-2.75-3.31-2.75c-1.2,0-2.28,0.34-3.4,1.07
			c-0.86,0.56-1.33,0.73-1.98,0.73c-1.76,0-3.1-1.33-3.1-3.01c0-1.08,0.56-2.06,1.59-2.88c1.81-1.46,4.56-2.28,7.7-2.28
			C189.19,133.65,192.72,137.09,192.72,143.2z M185.32,147.8v-0.17h-3.48c-1.25,0-1.98,0.6-1.98,1.63c0,1.08,0.82,1.68,2.19,1.68
			C183.99,150.94,185.32,149.69,185.32,147.8z"/>
		<path fill="#FFFFFF" d="M232.64,142.42v10.02c0,2.15-1.59,3.74-3.7,3.74s-3.7-1.59-3.7-3.74v-8.94c0-1.93-1.2-3.18-3.05-3.18
			c-1.81,0-2.97,1.25-2.97,3.18v8.94c0,2.15-1.59,3.74-3.7,3.74s-3.7-1.59-3.7-3.74v-8.94c0-1.93-1.2-3.18-3.05-3.18
			c-1.81,0-2.97,1.25-2.97,3.18v8.94c0,2.15-1.59,3.74-3.7,3.74s-3.7-1.59-3.7-3.74v-15.05c0-2.15,1.55-3.74,3.61-3.74
			c1.5,0,2.71,0.82,3.23,2.11c1.5-1.33,3.53-2.11,5.8-2.11c2.62,0,4.77,0.99,6.23,2.75c1.72-1.72,4.26-2.75,7.05-2.75
			C229.41,133.65,232.64,137.05,232.64,142.42z"/>
	</g>
</g>
</svg>
