<?xml version="1.0" encoding="utf-8"?>
<!-- Generator: Adobe Illustrator 26.4.1, SVG Export Plug-In . SVG Version: 6.00 Build 0)  -->
<svg version="1.1" id="Layer_1" xmlns="http://www.w3.org/2000/svg" xmlns:xlink="http://www.w3.org/1999/xlink" x="0px" y="0px"
	 viewBox="0 0 288 288" enable-background="new 0 0 288 288" xml:space="preserve">
<g>
	<path fill="#FFFFFF" d="M18.2,144.05C18.23,213.61,74.63,270,144.2,270s125.97-56.38,126-125.94c-0.02,3.05-1.18,6.1-3.5,8.42
		l-49.51,49.51c-0.02,0.02-0.03,0.03-0.05,0.05l-64.46,64.46c-2.33,2.33-5.41,3.5-8.49,3.5s-6.15-1.17-8.49-3.5l-48.97-48.97
		c-0.23-0.2-0.45-0.41-0.67-0.62l-64.34-64.34C19.39,150.22,18.22,147.14,18.2,144.05 M144.2,18c-69.57,0-125.97,56.39-126,125.95
		c0.01-3.09,1.19-6.18,3.53-8.52l64.34-64.34c0.22-0.22,0.44-0.43,0.67-0.62l48.97-48.97C138.05,19.17,141.13,18,144.2,18
		c3.08,0,6.15,1.17,8.49,3.5l49.56,49.56l0,0l64.46,64.46c2.32,2.32,3.48,5.37,3.5,8.42C270.17,74.38,213.77,18,144.2,18"/>
	<path fill="#FF959A" d="M144.2,18c-3.08,0-6.15,1.17-8.49,3.5L86.75,70.47c2.26-1.94,5.08-2.91,7.9-2.91
		c3.11,0,6.21,1.18,8.57,3.53l41.01,41.01l41.05-41.05c2.33-2.33,5.41-3.5,8.49-3.5s6.15,1.17,8.49,3.5L152.69,21.5
		C150.36,19.17,147.28,18,144.2,18"/>
	<path fill="#F44C7F" d="M144.23,175.9l-41.01,41.01c-2.36,2.36-5.46,3.53-8.57,3.53c-2.82,0-5.64-0.97-7.9-2.91l48.97,48.97
		c2.33,2.33,5.41,3.5,8.49,3.5s6.15-1.17,8.49-3.5l64.46-64.46c0.02-0.02,0.03-0.03,0.05-0.05l-14.95,14.95
		c-2.33,2.33-5.41,3.5-8.49,3.5s-6.15-1.17-8.49-3.5L144.23,175.9"/>
	<path fill="#FF9E18" d="M270.2,143.94c0,0.02,0,0.04,0,0.06s0,0.04,0,0.06C270.2,144.02,270.2,143.98,270.2,143.94"/>
	<path fill="#FF9E18" d="M202.24,71.06l14.9,14.9c4.67,4.67,4.67,12.3,0,16.97L176.08,144l41.07,41.07
		c4.65,4.65,4.67,12.25,0.05,16.92l49.51-49.51c2.32-2.32,3.48-5.37,3.5-8.42c0-0.02,0-0.04,0-0.06s0-0.04,0-0.06
		c-0.02-3.05-1.18-6.1-3.5-8.42L202.24,71.06L202.24,71.06"/>
	<path fill="#FF5C0E" d="M193.76,67.56c-3.08,0-6.15,1.17-8.49,3.5l-41.05,41.05l23.33,23.33c0.22,0.22,0.43,0.44,0.62,0.67l7.9,7.9
		l41.07-41.07c4.67-4.67,4.67-12.3,0-16.97l-14.9-14.9C199.91,68.72,196.84,67.56,193.76,67.56"/>
	<path fill="#F42F0C" d="M176.08,144l-7.9,7.9c-0.2,0.23-0.41,0.45-0.62,0.67l-23.33,23.33l41.05,41.05c2.33,2.33,5.41,3.5,8.49,3.5
		s6.15-1.17,8.49-3.5L217.21,202c4.62-4.67,4.6-12.27-0.05-16.92L176.08,144"/>
	<path fill="#F41B07" d="M168.18,136.1c3.88,4.52,3.88,11.28,0,15.79l7.9-7.9L168.18,136.1"/>
	<path fill="#B5B5B5" d="M18.2,143.95c0,0.03,0,0.06,0,0.09c0-0.02,0-0.03,0-0.05S18.2,143.97,18.2,143.95"/>
	<path fill="#B5B5B5" d="M86.75,70.47c-0.23,0.2-0.45,0.41-0.67,0.62l-64.34,64.34c-2.34,2.34-3.52,5.43-3.53,8.52
		c0,0.02,0,0.03,0,0.05s0,0.03,0,0.05c0.01,3.09,1.19,6.18,3.53,8.52l64.34,64.34c0.22,0.22,0.44,0.43,0.67,0.62l-15.49-15.49
		c-4.67-4.67-4.67-12.3,0-16.97L112.33,144l-41.07-41.07c-4.67-4.67-4.67-12.3,0-16.97L86.75,70.47"/>
	<path fill="#B56A6D" d="M94.65,67.56c-2.82,0-5.64,0.97-7.9,2.91L71.26,85.96c-4.67,4.67-4.67,12.3,0,16.97L112.33,144l8.44-8.44
		c0.02-0.02,0.03-0.03,0.05-0.05l23.41-23.41l-41.01-41.01C100.86,68.73,97.75,67.56,94.65,67.56"/>
	<path fill="#AD365A" d="M112.33,144l-41.07,41.07c-4.67,4.67-4.67,12.3,0,16.97l15.49,15.49c2.26,1.94,5.08,2.91,7.9,2.91
		c3.11,0,6.21-1.18,8.57-3.53l41.01-41.01l-23.41-23.41c-0.02-0.02-0.03-0.03-0.05-0.05L112.33,144"/>
	<path fill="#AD1F37" d="M120.76,135.56l-8.44,8.44l8.44,8.44C116.16,147.78,116.16,140.22,120.76,135.56"/>
	<path fill="#B5410A" d="M144.23,112.1l-23.41,23.41c-0.02,0.02-0.03,0.03-0.05,0.05l14.95-14.95c2.33-2.33,5.41-3.5,8.49-3.5
		s6.15,1.17,8.49,3.5l15.49,15.49c-0.2-0.23-0.41-0.45-0.62-0.67L144.23,112.1"/>
	<path fill="#AD2109" d="M168.18,151.9l-15.49,15.49c-2.33,2.33-5.41,3.5-8.49,3.5s-6.15-1.17-8.49-3.5l-14.95-14.95
		c0.02,0.02,0.03,0.03,0.05,0.05l23.41,23.41l23.33-23.33C167.78,152.35,167.98,152.13,168.18,151.9"/>
	<path fill="#AD1305" d="M144.2,117.11c-3.08,0-6.15,1.17-8.49,3.5l-14.95,14.95c-4.6,4.65-4.6,12.22,0,16.87l14.95,14.95
		c2.33,2.33,5.41,3.5,8.49,3.5s6.15-1.17,8.49-3.5l15.49-15.49c3.88-4.52,3.88-11.28,0-15.79l-15.49-15.49
		C150.36,118.28,147.28,117.11,144.2,117.11"/>
</g>
</svg>
