<?xml version="1.0" encoding="utf-8"?>
<!-- Generator: Adobe Illustrator 26.4.1, SVG Export Plug-In . SVG Version: 6.00 Build 0)  -->
<svg version="1.1" id="Layer_1" xmlns="http://www.w3.org/2000/svg" xmlns:xlink="http://www.w3.org/1999/xlink" x="0px" y="0px"
	 viewBox="0 0 100 100" style="enable-background:new 0 0 100 100;" xml:space="preserve">
<style type="text/css">
	.st0{fill:none;}
	.st1{stroke:#000000;stroke-width:1.5;stroke-miterlimit:10;}
</style>
<g>
	<path class="st0" d="M0,0c33.3,0,66.7,0,100,0c0,33.3,0,66.7,0,100c-33.3,0-66.7,0-100,0C0,66.7,0,33.3,0,0z M6.7,41.7
		c-4.8,0.6-4.9,4-4.5,7.8c1.4,11.9,6.3,22.2,14,31.4c4,4.7,8.8,6.9,14.8,7c12.7,0.1,25.3,0.4,38-0.2c4.2-0.2,9.1-1.8,12.2-4.5
		c9.9-8.9,15-20.5,16.7-33.7c0.5-3.9-0.2-6.9-4.3-8c0.8-3.4,1.4-6.5,2.1-9.6c0.9-4.1-0.1-6.7-4.8-7.2c-4-0.4-7.6-1.2-10.9-4.5
		c-2.7-2.8-7.6-3.4-10.1-7.1c-0.4-0.6-1.5-1-2.2-0.9c-6.4,1.1-12.8,2.4-19.1,3.6c-0.1,0-0.3,0.2-0.4,0.3c-3.6,3.2-7.1,2.8-11,0.2
		c-1.9-1.3-5.2-2.7-6.8-1.9c-6.2,3.1-12.3,6.8-17.9,11c-1.6,1.2-2.4,3.2-5,2.8c-2.7-0.4-3.6,1.3-3.1,3.7C4.9,34.9,5.7,37.9,6.7,41.7
		z"/>
	<path class="st1" d="M6.7,41.7c-1-3.8-1.8-6.9-2.5-9.9c-0.5-2.4,0.4-4.1,3.1-3.7c2.6,0.4,3.4-1.6,5-2.8c5.6-4.1,11.6-7.8,17.9-11
		c1.6-0.8,4.9,0.7,6.8,1.9c3.9,2.6,7.4,3.1,11-0.2c0.1-0.1,0.3-0.3,0.4-0.3c6.4-1.2,12.7-2.5,19.1-3.6c0.7-0.1,1.8,0.3,2.2,0.9
		c2.5,3.7,7.4,4.3,10.1,7.1c3.3,3.4,6.9,4.1,10.9,4.5c4.8,0.5,5.8,3,4.8,7.2c-0.7,3.1-1.4,6.2-2.1,9.6c4.1,1.1,4.8,4.1,4.3,8
		C96.2,62.7,91,74.3,81.1,83.2c-3,2.7-8,4.3-12.2,4.5c-12.6,0.6-25.3,0.3-38,0.2c-5.9,0-10.8-2.3-14.8-7c-7.8-9.1-12.6-19.5-14-31.4
		C1.7,45.7,1.9,42.3,6.7,41.7z M7.8,60.2c3.4,5.7,6.3,10.6,9.3,15.4C21,81.8,26.7,84.2,34,84c10-0.3,20,0,30-0.1
		c13.3-0.1,24.6-10.1,26.6-23.8C63.5,60.2,36.4,60.2,7.8,60.2z M94.1,46.3c-29.8,0-58.9,0-88.3,0c0.6,3.4,1.1,6.4,1.6,9.4
		c28.7,0,56.9,0,85.3,0C93.2,52.5,93.6,49.5,94.1,46.3z M77.3,41.4c12.2,1.8,14.5-0.3,14.1-11.8c-12.8-4.5-27.9,1.8-29,12.2
		c5.1,0.6,10.2,1.2,13.5-4.2c0.8-1.3,2.6-2.1,4.1-2.7c1-0.4,2.3,0.1,3.5,0.2c-0.5,1-0.7,2.3-1.5,3.1C80.8,39.2,79.3,40,77.3,41.4z
		 M47.7,27.8c-1.2-4.6-3.1-6.5-6.6-5.6c-2.8,0.7-4-0.1-5.7-2.1c-2.7-3.2-6.9-2.9-8.7,0.7c-1.3,2.6-2.8,2.9-5.3,3.3
		c-2.4,0.4-4.5,2.1-7,3.4c6.7,3.1,12.1,5.6,17.8,8.3C35.4,30.4,40.9,27.9,47.7,27.8z M77.4,23.1c-0.3-0.2-1-0.9-1.7-0.8
		c-3.3,0.1-5.1-1-6.6-4.4c-1.3-2.9-4.1-2.3-6.6-0.2c-1.1,0.9-3.4,1.5-4.7,1.1c-3.3-1.1-6.1-1.1-9,2.6c3.4,4.7,6.8,9.5,9.6,13.4
		C65.3,30.4,71.2,26.8,77.4,23.1z M57.3,41.8c-1.6-6.7-6.4-10.3-12.4-9.8c-5.5,0.5-9.5,4.4-9.9,9.8C42.4,41.8,49.7,41.8,57.3,41.8z
		 M15.5,41.8c-0.2-1.9-0.4-3.6-0.6-5.3c1.6,0.8,3.7,1.2,4.7,2.5c2.7,3.3,6,3.4,9.7,2.7c-3.1-5.9-12.4-9.9-20.3-8.8
		C9.5,40.2,10.7,41.9,15.5,41.8z"/>
	<path class="st0" d="M7.8,60.2c28.6,0,55.7,0,82.8,0C88.6,73.9,77.4,83.9,64,84C54,84,44,83.8,34,84c-7.3,0.2-13-2.2-16.9-8.4
		C14.1,70.8,11.2,65.8,7.8,60.2z"/>
	<path class="st0" d="M94.1,46.3c-0.5,3.2-0.9,6.2-1.4,9.4c-28.4,0-56.6,0-85.3,0c-0.5-2.9-1-6-1.6-9.4
		C35.3,46.3,64.3,46.3,94.1,46.3z"/>
	<path class="st0" d="M77.3,41.4c2-1.3,3.6-2.1,4.8-3.3c0.8-0.7,1-2,1.5-3.1c-1.2-0.1-2.5-0.6-3.5-0.2c-1.5,0.6-3.3,1.4-4.1,2.7
		c-3.4,5.5-8.4,4.8-13.5,4.2c1.2-10.3,16.3-16.7,29-12.2C91.8,41.1,89.4,43.2,77.3,41.4z"/>
	<path class="st0" d="M47.7,27.8c-6.8,0-12.3,2.6-15.5,8c-5.7-2.7-11.2-5.2-17.8-8.3c2.5-1.3,4.6-3,7-3.4c2.5-0.4,4.1-0.8,5.3-3.3
		c1.8-3.6,6-3.9,8.7-0.7c1.7,2,2.9,2.9,5.7,2.1C44.7,21.3,46.5,23.2,47.7,27.8z"/>
	<path class="st0" d="M77.4,23.1c-6.1,3.7-12.1,7.3-19.2,11.6c-2.8-3.9-6.2-8.7-9.6-13.4c3-3.6,5.7-3.7,9-2.6
		c1.4,0.4,3.6-0.1,4.7-1.1c2.5-2.1,5.3-2.7,6.6,0.2c1.5,3.3,3.3,4.4,6.6,4.4C76.4,22.3,77.1,23,77.4,23.1z"/>
	<path class="st0" d="M57.3,41.8c-7.7,0-14.9,0-22.3,0c0.3-5.4,4.3-9.3,9.9-9.8C50.9,31.5,55.7,35.1,57.3,41.8z"/>
	<path class="st0" d="M15.5,41.8c-4.7,0-6-1.6-6.4-8.9c7.9-1.2,17.3,2.8,20.3,8.8c-3.7,0.7-7,0.6-9.7-2.7c-1-1.3-3.1-1.7-4.7-2.5
		C15.1,38.2,15.3,39.9,15.5,41.8z"/>
</g>
</svg>
