<?xml version="1.0" encoding="utf-8"?>
<!-- Generator: Adobe Illustrator 26.4.1, SVG Export Plug-In . SVG Version: 6.00 Build 0)  -->
<svg version="1.1" id="Layer_1" xmlns="http://www.w3.org/2000/svg" xmlns:xlink="http://www.w3.org/1999/xlink" x="0px" y="0px"
	 viewBox="0 0 100 100" style="enable-background:new 0 0 100 100;" xml:space="preserve">
<style type="text/css">
	.st0{fill:none;}
</style>
<g>
	<path class="st0" d="M0,0c33.3,0,66.7,0,100,0c0,33.3,0,66.7,0,100c-33.3,0-66.7,0-100,0C0,66.7,0,33.3,0,0z M95.5,60.3
		c-30.6,0-60.5,0-90.8,0c2.2,7.9,6.4,14.1,11.2,20.2c4.1,5.1,9.2,7.4,15.6,7.4c12.3,0,24.6,0.2,36.9-0.1c3.7-0.1,8.1-0.8,10.8-2.9
		C87.1,78.8,92.2,70.4,95.5,60.3z M3.4,55.6c31.3,0,62.3,0,93.3,0c0.3-1.5,0.5-2.7,0.7-3.8c1.5-8.4,0.4-9.8-7.9-9.8
		c-25.1,0-50.3,0-75.4,0C1,42,0.7,42.4,3.4,55.6z M84.1,37.8c11,0.6,12.4-0.4,11.7-8.8c-0.1-1.3-1.4-3.2-2.5-3.5
		c-11-2.8-21.5-2-30.2,6.3c-1.7,1.6-2.8,3.7-4.8,6.4c8.2-0.9,15.4,1.6,21.8-3.4C83.4,32.3,83.6,35.8,84.1,37.8z M13,23.7
		c6.4,2.2,12.2,4.3,18.4,6.4c5.1-5,11.7-7,19.4-5.8c-0.3-0.9-0.4-1.5-0.7-1.7c-5.8-5.5-13.5-8.2-20.6-7.9C24,15,18.7,20.4,13,23.7z
		 M49.5,15.2c2,2.8,3.8,5.1,5.4,7.5c1.5,2.2,2.8,4.5,3.5,5.7c7.6-3.5,13.9-6.4,19.3-8.9c-1.8-1.6-3.9-3.8-6.4-5.3
		c-2-1.2-5.2-2.7-6.7-1.9c-4,2.1-8,1.9-12.2,1.8C51.4,14.2,50.5,14.8,49.5,15.2z M31.1,38.6c0.1-0.6,0.3-1.1,0.4-1.7
		c-5.8-6.6-13.8-7.8-21.9-8.7c-2.1-0.2-5.3-1.5-5.6,2.7c-0.2,4.9,1.5,7.3,5.6,7c2.4-0.1,4.9-1.5,7.3-1.4
		C21.7,36.9,26.4,37.9,31.1,38.6z M34.4,33.4c1.2,3.7,3.7,5.1,7.5,4.6c2.1-0.3,4.4-0.3,6.5,0c4.5,0.6,7.4-0.8,8.2-5.4
		C49.7,26.1,41,26.4,34.4,33.4z"/>
	<path d="M95.5,60.3c-3.3,10.1-8.4,18.5-16.3,24.6c-2.7,2.1-7.1,2.8-10.8,2.9c-12.3,0.3-24.6,0.1-36.9,0.1c-6.4,0-11.5-2.3-15.6-7.4
		c-4.8-6-9-12.2-11.2-20.2C35,60.3,64.9,60.3,95.5,60.3z"/>
	<path d="M3.4,55.6C0.7,42.4,1,42,14,42c25.1,0,50.3,0,75.4,0c8.3,0,9.5,1.4,7.9,9.8c-0.2,1.1-0.4,2.3-0.7,3.8
		C65.7,55.6,34.7,55.6,3.4,55.6z"/>
	<path d="M84.1,37.8c-0.5-2.1-0.7-5.5-3.9-3c-6.4,5-13.7,2.5-21.8,3.4c2-2.7,3.1-4.8,4.8-6.4c8.7-8.3,19.2-9.1,30.2-6.3
		c1.1,0.3,2.4,2.2,2.5,3.5C96.5,37.4,95.1,38.4,84.1,37.8z"/>
	<path d="M13,23.7c5.7-3.3,11-8.7,16.5-9c7.1-0.4,14.9,2.3,20.6,7.9c0.3,0.3,0.3,0.8,0.7,1.7c-7.8-1.1-14.3,0.8-19.4,5.8
		C25.3,28,19.4,26,13,23.7z"/>
	<path d="M49.5,15.2c1-0.4,1.9-1,2.8-1c4.2,0.1,8.2,0.3,12.2-1.8c1.6-0.8,4.7,0.7,6.7,1.9c2.5,1.5,4.6,3.8,6.4,5.3
		c-5.4,2.5-11.7,5.4-19.3,8.9c-0.7-1.2-2-3.5-3.5-5.7C53.3,20.3,51.5,17.9,49.5,15.2z"/>
	<path d="M31.1,38.6c-4.7-0.7-9.4-1.7-14.2-2.1c-2.4-0.2-4.8,1.2-7.3,1.4c-4.2,0.2-5.9-2.1-5.6-7c0.2-4.2,3.4-2.9,5.6-2.7
		c8.1,0.9,16.1,2.2,21.9,8.7C31.4,37.5,31.3,38.1,31.1,38.6z"/>
	<path d="M34.4,33.4c6.6-7,15.3-7.3,22.2-0.8c-0.9,4.7-3.8,6.1-8.2,5.4c-2.1-0.3-4.3-0.3-6.5,0C38.1,38.6,35.6,37.2,34.4,33.4z"/>
</g>
</svg>
