<?xml version="1.0" encoding="UTF-8"?>
<svg xmlns="http://www.w3.org/2000/svg" viewBox="0 0 265.89 265.89">
  <defs>
    <style>
      .cls-1 {
        fill: #f7a1a0;
      }

      .cls-2 {
        fill: #f48592;
      }

      .cls-3 {
        fill: #fcba63;
        stroke: #f99d1c;
        stroke-miterlimit: 10;
      }
    </style>
  </defs>
  <g id="Layer_04" data-name="Layer 04">
    <rect class="cls-2" width="265.89" height="265.89"/>
  </g>
  <g id="Seed_3" data-name="Seed 3">
    <g id="Seeds_3::Highlight_3" data-name="Seeds 3::Highlight 3">
      <g>
        <path class="cls-1" d="M11.87,70.9c4.24,1.21,5.61,1.22,6.57,1.19s1.51-.09,1.98-.56c.48-.47,.89-1.35,1.29-2.45,.41-1.1,.81-2.43,1.07-3.37s.4-1.48,.84-1.79c.44-.31,1.17-.37,2.45-.6,.41,1.18,.48,2.4,.39,3.83-.1,1.57-.4,3.4-1.02,4.73s-1.56,2.18-2.73,2.73-2.55,.78-3.83,.7c-1.28-.09-2.47-.5-3.74-1.34-1.07-.71-2.21-1.73-3.28-3.05Z"/>
        <path class="cls-1" d="M195.86,41.05c4.24,1.21,5.61,1.22,6.57,1.19,.96-.03,1.51-.09,1.98-.56,.48-.47,.89-1.35,1.29-2.45s.81-2.43,1.07-3.37c.27-.94,.4-1.48,.84-1.79s1.17-.37,2.45-.6c.41,1.18,.48,2.4,.39,3.83-.1,1.57-.4,3.4-1.02,4.73-.62,1.34-1.56,2.18-2.73,2.73s-2.55,.78-3.83,.7c-1.28-.09-2.47-.5-3.74-1.34-1.07-.71-2.21-1.73-3.28-3.05Z"/>
        <path class="cls-1" d="M90.29,195.01c4.24,1.21,5.61,1.22,6.57,1.19,.96-.03,1.51-.09,1.98-.56s.89-1.35,1.29-2.45c.41-1.1,.81-2.43,1.07-3.37,.27-.94,.4-1.48,.84-1.79s1.17-.37,2.45-.6c.41,1.18,.48,2.4,.39,3.83-.1,1.57-.4,3.4-1.02,4.73s-1.56,2.18-2.73,2.73c-1.16,.54-2.55,.78-3.83,.7-1.28-.09-2.47-.5-3.74-1.34-1.07-.71-2.21-1.73-3.28-3.05Z"/>
        <path class="cls-1" d="M192.72,116.79c4.24,1.21,5.61,1.22,6.57,1.19s1.51-.09,1.98-.56c.48-.47,.89-1.35,1.29-2.45,.41-1.1,.81-2.43,1.07-3.37,.27-.94,.4-1.48,.84-1.79,.44-.31,1.17-.37,2.45-.6,.41,1.18,.48,2.4,.39,3.83-.1,1.57-.4,3.4-1.02,4.73-.62,1.34-1.56,2.18-2.73,2.73s-2.55,.78-3.83,.7c-1.28-.09-2.47-.5-3.74-1.34-1.07-.71-2.21-1.73-3.28-3.05Z"/>
        <path class="cls-1" d="M122.06,49.72c4.24,1.21,5.61,1.22,6.57,1.19s1.51-.09,1.98-.56c.48-.47,.89-1.35,1.29-2.45,.41-1.1,.81-2.43,1.07-3.37,.27-.94,.4-1.48,.84-1.79,.44-.31,1.17-.37,2.45-.6,.41,1.18,.48,2.4,.39,3.83-.1,1.57-.4,3.4-1.02,4.73s-1.56,2.18-2.73,2.73c-1.16,.54-2.55,.78-3.83,.7-1.28-.09-2.47-.5-3.74-1.34-1.07-.71-2.21-1.73-3.28-3.05Z"/>
        <path class="cls-1" d="M75.66,254.6c4.24,1.21,5.61,1.22,6.57,1.19s1.5-.09,1.98-.56c.48-.47,.89-1.35,1.29-2.45,.41-1.1,.81-2.43,1.07-3.37,.27-.94,.4-1.48,.84-1.79,.44-.31,1.17-.37,2.45-.6,.41,1.18,.48,2.4,.39,3.83-.1,1.57-.4,3.4-1.02,4.73-.62,1.34-1.56,2.18-2.73,2.73s-2.55,.78-3.83,.7c-1.28-.09-2.47-.5-3.74-1.34-1.07-.71-2.21-1.73-3.28-3.05Z"/>
        <path class="cls-1" d="M221.17,213.79c4.24,1.21,5.61,1.22,6.57,1.19s1.51-.09,1.98-.56c.48-.47,.89-1.35,1.29-2.45,.41-1.1,.81-2.43,1.07-3.37,.27-.94,.4-1.48,.84-1.79,.44-.31,1.17-.37,2.45-.6,.41,1.18,.48,2.4,.39,3.83-.1,1.57-.4,3.4-1.02,4.73s-1.56,2.18-2.73,2.73-2.55,.78-3.83,.7c-1.28-.09-2.47-.5-3.74-1.34-1.07-.71-2.21-1.73-3.28-3.05Z"/>
        <path class="cls-1" d="M51.43,115.65c4.24,1.21,5.61,1.22,6.57,1.19,.96-.03,1.51-.09,1.98-.56s.89-1.35,1.29-2.45c.41-1.1,.81-2.43,1.07-3.37s.4-1.48,.84-1.79c.44-.31,1.17-.37,2.45-.6,.41,1.18,.48,2.4,.39,3.83-.1,1.57-.4,3.4-1.02,4.73s-1.56,2.18-2.73,2.73-2.55,.78-3.83,.7c-1.28-.09-2.47-.5-3.74-1.34-1.07-.71-2.21-1.73-3.28-3.05Z"/>
        <path class="cls-1" d="M107.16,87.78c4.24,1.21,5.61,1.22,6.57,1.19,.96-.03,1.51-.09,1.98-.56,.48-.47,.89-1.35,1.29-2.45,.41-1.1,.81-2.43,1.07-3.37,.27-.94,.4-1.48,.84-1.79s1.17-.37,2.45-.6c.41,1.18,.48,2.4,.39,3.83-.1,1.57-.4,3.4-1.02,4.73s-1.56,2.18-2.73,2.73-2.55,.78-3.83,.7c-1.28-.09-2.47-.5-3.74-1.34-1.07-.71-2.21-1.73-3.28-3.05Z"/>
        <path class="cls-1" d="M167.64,80.27c4.24,1.21,5.61,1.22,6.57,1.19s1.51-.09,1.98-.56,.89-1.35,1.29-2.45c.41-1.1,.81-2.43,1.07-3.37,.27-.94,.4-1.48,.84-1.79s1.17-.37,2.45-.6c.41,1.18,.48,2.4,.39,3.83-.1,1.57-.4,3.4-1.02,4.73s-1.56,2.18-2.73,2.73c-1.16,.54-2.55,.78-3.83,.7-1.28-.09-2.47-.5-3.74-1.34-1.07-.71-2.21-1.73-3.28-3.05Z"/>
        <path class="cls-1" d="M170.53,231.05c4.24,1.21,5.61,1.22,6.57,1.19,.96-.03,1.51-.09,1.98-.56,.48-.47,.89-1.35,1.29-2.45,.41-1.1,.81-2.43,1.07-3.37,.27-.94,.4-1.48,.84-1.79s1.17-.37,2.45-.6c.41,1.18,.48,2.4,.39,3.83-.1,1.57-.4,3.4-1.02,4.73s-1.56,2.18-2.73,2.73-2.55,.78-3.83,.7c-1.28-.09-2.47-.5-3.74-1.34-1.07-.71-2.21-1.73-3.28-3.05Z"/>
        <path class="cls-1" d="M16.72,240.03c4.24,1.21,5.61,1.22,6.57,1.19s1.51-.09,1.98-.56,.89-1.35,1.29-2.45c.41-1.1,.81-2.43,1.07-3.37,.27-.94,.4-1.48,.84-1.79,.44-.31,1.17-.37,2.45-.6,.41,1.18,.48,2.4,.39,3.83-.1,1.57-.4,3.4-1.02,4.73s-1.56,2.18-2.73,2.73-2.55,.78-3.83,.7c-1.28-.09-2.47-.5-3.74-1.34-1.07-.71-2.21-1.73-3.28-3.05Z"/>
        <path class="cls-1" d="M213.21,238.9c4.24,1.21,5.61,1.22,6.57,1.19s1.51-.09,1.98-.56c.48-.47,.89-1.35,1.29-2.45,.41-1.1,.81-2.43,1.07-3.37,.27-.94,.4-1.48,.84-1.79s1.17-.37,2.45-.6c.41,1.18,.48,2.4,.39,3.83-.1,1.57-.4,3.4-1.02,4.73-.62,1.34-1.56,2.18-2.73,2.73s-2.55,.78-3.83,.7c-1.28-.09-2.47-.5-3.74-1.34-1.07-.71-2.21-1.73-3.28-3.05Z"/>
        <path class="cls-1" d="M229.08,44.29c4.24,1.21,5.61,1.22,6.57,1.19s1.51-.09,1.98-.56,.89-1.35,1.29-2.45c.41-1.1,.81-2.43,1.07-3.37,.27-.94,.4-1.48,.84-1.79,.44-.31,1.17-.37,2.45-.6,.41,1.18,.48,2.4,.39,3.83-.1,1.57-.4,3.4-1.02,4.73s-1.56,2.18-2.73,2.73-2.55,.78-3.83,.7c-1.28-.09-2.47-.5-3.74-1.34-1.07-.71-2.21-1.73-3.28-3.05Z"/>
        <path class="cls-1" d="M37.7,139.38c4.24,1.21,5.61,1.22,6.57,1.19s1.51-.09,1.98-.56,.89-1.35,1.29-2.45c.41-1.1,.81-2.43,1.07-3.37,.27-.94,.4-1.48,.84-1.79,.44-.31,1.17-.37,2.45-.6,.41,1.18,.48,2.4,.39,3.83-.1,1.57-.4,3.4-1.02,4.73s-1.56,2.18-2.73,2.73-2.55,.78-3.83,.7c-1.28-.09-2.47-.5-3.74-1.34-1.07-.71-2.21-1.73-3.28-3.05Z"/>
        <path class="cls-1" d="M129.18,227.86c4.24,1.21,5.61,1.22,6.57,1.19,.96-.03,1.51-.09,1.98-.56,.48-.47,.89-1.35,1.29-2.45,.41-1.1,.81-2.43,1.07-3.37,.27-.94,.4-1.48,.84-1.79s1.17-.37,2.45-.6c.41,1.18,.48,2.4,.39,3.83-.1,1.57-.4,3.4-1.02,4.73s-1.56,2.18-2.73,2.73-2.55,.78-3.83,.7c-1.28-.09-2.47-.5-3.74-1.34-1.07-.71-2.21-1.73-3.28-3.05Z"/>
        <path class="cls-1" d="M145.65,17.48c4.24,1.21,5.61,1.22,6.57,1.19,.96-.03,1.51-.09,1.98-.56s.89-1.35,1.29-2.45c.41-1.1,.81-2.43,1.07-3.37,.27-.94,.4-1.48,.84-1.79,.44-.31,1.17-.37,2.45-.6,.41,1.18,.48,2.4,.39,3.83-.1,1.57-.4,3.4-1.02,4.73s-1.56,2.18-2.73,2.73-2.55,.78-3.83,.7c-1.28-.09-2.47-.5-3.74-1.34-1.07-.71-2.21-1.73-3.28-3.05Z"/>
        <path class="cls-1" d="M33.76,17.86c4.24,1.21,5.61,1.22,6.57,1.19s1.51-.09,1.98-.56,.89-1.35,1.29-2.45c.41-1.1,.81-2.43,1.07-3.37,.27-.94,.4-1.48,.84-1.79,.44-.31,1.17-.37,2.45-.6,.41,1.18,.48,2.4,.39,3.83-.1,1.57-.4,3.4-1.02,4.73s-1.56,2.18-2.73,2.73-2.55,.78-3.83,.7c-1.28-.09-2.47-.5-3.74-1.34-1.07-.71-2.21-1.73-3.28-3.05Z"/>
      </g>
    </g>
    <g id="Seeds_3::Seed_3" data-name="Seeds 3::Seed 3">
      <g>
        <path class="cls-3" d="M201.56,37.88c.23-.1,.23-.39,.35-.75s.37-.8,.5-1.42c.13-.63,.14-1.44,.03-2.29s-.34-1.71-.74-2.56-.98-1.68-1.62-2.14c-.64-.47-1.33-.57-1.94-.38-.62,.19-1.15,.68-1.5,1.32-.35,.65-.5,1.45-.38,2.28s.51,1.68,1.03,2.56c.52,.89,1.16,1.82,1.7,2.37,.54,.55,.99,.73,1.44,.86,.45,.13,.9,.23,1.13,.13Z"/>
        <path class="cls-3" d="M173.33,77.1c.23-.1,.23-.39,.35-.75s.37-.8,.5-1.42,.14-1.44,.03-2.29-.34-1.71-.74-2.56c-.4-.85-.98-1.68-1.62-2.14-.64-.47-1.33-.57-1.94-.38-.62,.19-1.15,.68-1.5,1.32-.35,.65-.5,1.45-.38,2.28,.12,.83,.51,1.68,1.03,2.56,.52,.89,1.16,1.82,1.7,2.37s.99,.73,1.44,.86c.45,.13,.9,.23,1.13,.13Z"/>
        <path class="cls-3" d="M176.22,227.89c.23-.1,.23-.39,.35-.75s.37-.8,.5-1.42c.13-.63,.14-1.44,.03-2.29s-.34-1.71-.74-2.56c-.4-.85-.98-1.68-1.62-2.14-.64-.47-1.33-.57-1.94-.38-.62,.19-1.15,.68-1.5,1.32s-.5,1.45-.38,2.28c.12,.83,.51,1.68,1.03,2.56s1.16,1.82,1.7,2.37c.54,.55,.99,.73,1.44,.86,.45,.13,.9,.23,1.13,.13Z"/>
        <path class="cls-3" d="M22.42,236.86c.23-.1,.23-.39,.35-.75s.37-.8,.5-1.42,.14-1.44,.03-2.29-.34-1.71-.74-2.56c-.4-.85-.98-1.68-1.62-2.14s-1.33-.57-1.94-.38c-.62,.19-1.15,.68-1.5,1.32-.35,.65-.5,1.45-.38,2.28,.12,.83,.51,1.68,1.03,2.56,.52,.89,1.16,1.82,1.7,2.37,.54,.55,.99,.73,1.44,.86,.45,.13,.9,.23,1.13,.13Z"/>
        <path class="cls-3" d="M218.91,235.74c.23-.1,.23-.39,.35-.75,.12-.36,.37-.8,.5-1.42,.13-.63,.14-1.44,.03-2.29s-.34-1.71-.74-2.56c-.4-.85-.98-1.68-1.62-2.14-.64-.47-1.33-.57-1.94-.38s-1.15,.68-1.5,1.32c-.35,.65-.5,1.45-.38,2.28,.12,.83,.51,1.68,1.03,2.56,.52,.89,1.16,1.82,1.7,2.37,.54,.55,.99,.73,1.44,.86,.45,.13,.9,.23,1.13,.13Z"/>
        <path class="cls-3" d="M234.78,41.12c.23-.1,.23-.39,.35-.75s.37-.8,.5-1.42,.14-1.44,.03-2.29-.34-1.71-.74-2.56c-.4-.85-.98-1.68-1.62-2.14s-1.33-.57-1.94-.38c-.62,.19-1.15,.68-1.5,1.32-.35,.65-.5,1.45-.38,2.28,.12,.83,.51,1.68,1.03,2.56,.52,.89,1.16,1.82,1.7,2.37,.54,.55,.99,.73,1.44,.86,.45,.13,.9,.23,1.13,.13Z"/>
        <path class="cls-3" d="M43.4,136.21c.23-.1,.23-.39,.35-.75s.37-.8,.5-1.42,.14-1.44,.03-2.29-.34-1.71-.74-2.56c-.4-.85-.98-1.68-1.62-2.14-.64-.47-1.33-.57-1.94-.38-.62,.19-1.15,.68-1.5,1.32-.35,.65-.5,1.45-.38,2.28,.12,.83,.51,1.68,1.03,2.56,.52,.89,1.16,1.82,1.7,2.37,.54,.55,.99,.73,1.44,.86,.45,.13,.9,.23,1.13,.13Z"/>
        <path class="cls-3" d="M134.88,224.7c.23-.1,.23-.39,.35-.75s.37-.8,.5-1.42c.13-.63,.14-1.44,.03-2.29-.11-.84-.34-1.71-.74-2.56-.4-.85-.98-1.68-1.62-2.14-.64-.47-1.33-.57-1.94-.38-.62,.19-1.15,.68-1.5,1.32-.35,.65-.5,1.45-.38,2.28,.12,.83,.51,1.68,1.03,2.56,.52,.89,1.16,1.82,1.7,2.37,.54,.55,.99,.73,1.44,.86,.45,.13,.9,.23,1.13,.13Z"/>
        <path class="cls-3" d="M17.57,67.73c.23-.1,.23-.39,.35-.75,.12-.36,.37-.8,.5-1.42s.14-1.44,.03-2.29-.34-1.71-.74-2.56c-.4-.85-.98-1.68-1.62-2.14-.64-.47-1.33-.57-1.94-.38-.62,.19-1.15,.68-1.5,1.32-.35,.65-.5,1.45-.38,2.28,.12,.83,.51,1.68,1.03,2.56,.52,.89,1.16,1.82,1.7,2.37s.99,.73,1.44,.86c.45,.13,.9,.23,1.13,.13Z"/>
        <path class="cls-3" d="M39.46,14.69c.23-.1,.23-.39,.35-.75,.12-.36,.37-.8,.5-1.42s.14-1.44,.03-2.29c-.11-.84-.34-1.71-.74-2.56-.4-.85-.98-1.68-1.62-2.14-.64-.47-1.33-.57-1.94-.38-.62,.19-1.15,.68-1.5,1.32-.35,.65-.5,1.45-.38,2.28s.51,1.68,1.03,2.56c.52,.89,1.16,1.82,1.7,2.37,.54,.55,.99,.73,1.44,.86,.45,.13,.9,.23,1.13,.13Z"/>
        <path class="cls-3" d="M151.35,14.31c.23-.1,.23-.39,.35-.75s.37-.8,.5-1.42,.14-1.44,.03-2.29-.34-1.71-.74-2.56c-.4-.85-.98-1.68-1.62-2.14-.64-.47-1.33-.57-1.94-.38-.62,.19-1.15,.68-1.5,1.32-.35,.65-.5,1.45-.38,2.28,.12,.83,.51,1.68,1.03,2.56s1.16,1.82,1.7,2.37c.54,.55,.99,.73,1.44,.86,.45,.13,.9,.23,1.13,.13Z"/>
        <path class="cls-3" d="M112.86,84.62c.23-.1,.23-.39,.35-.75s.37-.8,.5-1.42,.14-1.44,.03-2.29c-.11-.84-.34-1.71-.74-2.56-.4-.85-.98-1.68-1.62-2.14-.64-.47-1.33-.57-1.94-.38-.62,.19-1.15,.68-1.5,1.32-.35,.65-.5,1.45-.38,2.28s.51,1.68,1.03,2.56c.52,.89,1.16,1.82,1.7,2.37,.54,.55,.99,.73,1.44,.86,.45,.13,.9,.23,1.13,.13Z"/>
        <path class="cls-3" d="M57.13,112.49c.23-.1,.23-.39,.35-.75,.12-.36,.37-.8,.5-1.42s.14-1.44,.03-2.29-.34-1.71-.74-2.56c-.4-.85-.98-1.68-1.62-2.14s-1.33-.57-1.94-.38c-.62,.19-1.15,.68-1.5,1.32-.35,.65-.5,1.45-.38,2.28,.12,.83,.51,1.68,1.03,2.56,.52,.89,1.16,1.82,1.7,2.37,.54,.55,.99,.73,1.44,.86,.45,.13,.9,.23,1.13,.13Z"/>
        <path class="cls-3" d="M226.87,210.62c.23-.1,.23-.39,.35-.75s.37-.8,.5-1.42,.14-1.44,.03-2.29-.34-1.71-.74-2.56c-.4-.85-.98-1.68-1.62-2.14-.64-.47-1.33-.57-1.94-.38-.62,.19-1.15,.68-1.5,1.32-.35,.65-.5,1.45-.38,2.28,.12,.83,.51,1.68,1.03,2.56,.52,.89,1.16,1.82,1.7,2.37s.99,.73,1.44,.86c.45,.13,.9,.23,1.13,.13Z"/>
        <path class="cls-3" d="M81.36,251.43c.23-.1,.23-.39,.35-.75,.12-.36,.37-.8,.5-1.42,.13-.63,.14-1.44,.03-2.29-.11-.84-.34-1.71-.74-2.56-.4-.85-.98-1.68-1.62-2.14-.64-.47-1.33-.57-1.94-.38-.62,.19-1.15,.68-1.5,1.32s-.5,1.45-.38,2.28c.12,.83,.51,1.68,1.03,2.56,.52,.89,1.16,1.82,1.7,2.37s.99,.73,1.44,.86c.45,.13,.9,.23,1.13,.13Z"/>
        <path class="cls-3" d="M127.76,46.56c.23-.1,.23-.39,.35-.75s.37-.8,.5-1.42,.14-1.44,.03-2.29-.34-1.71-.74-2.56c-.4-.85-.98-1.68-1.62-2.14-.64-.47-1.33-.57-1.94-.38-.62,.19-1.15,.68-1.5,1.32-.35,.65-.5,1.45-.38,2.28,.12,.83,.51,1.68,1.03,2.56,.52,.89,1.16,1.82,1.7,2.37s.99,.73,1.44,.86c.45,.13,.9,.23,1.13,.13Z"/>
        <path class="cls-3" d="M198.42,113.62c.23-.1,.23-.39,.35-.75,.12-.36,.37-.8,.5-1.42s.14-1.44,.03-2.29c-.11-.84-.34-1.71-.74-2.56-.4-.85-.98-1.68-1.62-2.14-.64-.47-1.33-.57-1.94-.38-.62,.19-1.15,.68-1.5,1.32-.35,.65-.5,1.45-.38,2.28,.12,.83,.51,1.68,1.03,2.56,.52,.89,1.16,1.82,1.7,2.37s.99,.73,1.44,.86c.45,.13,.9,.23,1.13,.13Z"/>
        <path class="cls-3" d="M95.99,191.85c.23-.1,.23-.39,.35-.75s.37-.8,.5-1.42c.13-.63,.14-1.44,.03-2.29s-.34-1.71-.74-2.56c-.4-.85-.98-1.68-1.62-2.14-.64-.47-1.33-.57-1.94-.38-.62,.19-1.15,.68-1.5,1.32-.35,.65-.5,1.45-.38,2.28,.12,.83,.51,1.68,1.03,2.56,.52,.89,1.16,1.82,1.7,2.37s.99,.73,1.44,.86c.45,.13,.9,.23,1.13,.13Z"/>
      </g>
    </g>
  </g>
  <g id="Seed_2" data-name="Seed 2">
    <g id="Seeds_2::Highlight_2" data-name="Seeds 2::Highlight 2">
      <g>
        <path class="cls-1" d="M164.99,116.35c.51-.87,1.41-.97,2.27-1.06,.85-.09,1.66-.17,2.37-.9,.7-.73,1.3-2.11,1.87-3.44,.57-1.33,1.12-2.62,1.44-3.74,.32-1.12,.43-2.08,.72-2.94,.29-.85,.78-1.62,1.73-2.55,.26,.45,.53,.89,.77,1.33,.92,1.75,1.28,3.6,1.37,5.36,.09,1.76-.08,3.43-.71,4.88-.63,1.45-1.72,2.68-3.2,3.44s-3.33,1.06-5.01,.87c-1.31-.15-2.52-.6-3.62-1.25Z"/>
        <path class="cls-1" d="M145.47,172c.51-.87,1.41-.97,2.27-1.06,.85-.09,1.66-.17,2.37-.9,.7-.73,1.3-2.11,1.87-3.44,.57-1.33,1.12-2.62,1.44-3.74,.32-1.12,.43-2.08,.72-2.94,.29-.85,.78-1.62,1.73-2.55,.26,.45,.53,.89,.77,1.33,.92,1.75,1.28,3.6,1.37,5.36,.09,1.76-.08,3.43-.71,4.88-.63,1.45-1.72,2.68-3.2,3.44-1.47,.76-3.33,1.06-5.01,.87-1.31-.15-2.52-.6-3.62-1.25Z"/>
        <path class="cls-1" d="M94.24,65.09c.51-.87,1.41-.97,2.27-1.06s1.66-.17,2.37-.9c.7-.73,1.3-2.11,1.87-3.44,.57-1.33,1.12-2.62,1.44-3.74,.32-1.12,.43-2.08,.72-2.94,.29-.85,.78-1.62,1.73-2.55,.26,.45,.53,.89,.76,1.33,.92,1.75,1.28,3.6,1.37,5.36,.09,1.76-.08,3.43-.71,4.88-.63,1.45-1.72,2.68-3.2,3.44-1.47,.76-3.33,1.06-5.01,.87-1.31-.15-2.52-.6-3.62-1.25Z"/>
        <path class="cls-1" d="M51.48,232.5c.51-.87,1.41-.97,2.27-1.06,.85-.09,1.66-.17,2.37-.9,.7-.73,1.3-2.11,1.87-3.44,.57-1.33,1.12-2.62,1.44-3.74,.32-1.12,.43-2.08,.72-2.94,.29-.85,.78-1.62,1.73-2.55,.26,.45,.53,.89,.77,1.33,.92,1.75,1.28,3.6,1.37,5.36,.09,1.76-.08,3.43-.71,4.88-.63,1.45-1.72,2.68-3.2,3.44s-3.33,1.06-5.01,.87c-1.31-.15-2.52-.6-3.62-1.25Z"/>
        <path class="cls-1" d="M246.82,76.74c.51-.87,1.41-.97,2.27-1.06s1.66-.17,2.37-.9c.7-.73,1.3-2.11,1.87-3.44,.57-1.33,1.12-2.62,1.44-3.74,.32-1.12,.43-2.08,.72-2.94,.29-.85,.78-1.62,1.73-2.55,.26,.45,.53,.89,.76,1.33,.92,1.75,1.28,3.6,1.37,5.36,.09,1.76-.08,3.43-.71,4.88-.63,1.45-1.72,2.68-3.2,3.44-1.47,.76-3.33,1.06-5.01,.87-1.31-.15-2.52-.6-3.62-1.25Z"/>
        <path class="cls-1" d="M57.09,54.62c.51-.87,1.41-.97,2.27-1.06,.85-.09,1.66-.17,2.37-.9,.7-.73,1.3-2.11,1.87-3.44,.57-1.33,1.12-2.62,1.44-3.74,.32-1.12,.43-2.08,.72-2.94,.29-.85,.78-1.62,1.73-2.55,.26,.45,.53,.89,.76,1.33,.92,1.75,1.28,3.6,1.37,5.36,.09,1.76-.08,3.43-.71,4.88s-1.72,2.68-3.2,3.44-3.33,1.06-5.01,.87c-1.31-.15-2.52-.6-3.62-1.25Z"/>
        <path class="cls-1" d="M223.1,139.31c.51-.87,1.41-.97,2.27-1.06s1.66-.17,2.37-.9c.7-.73,1.3-2.11,1.87-3.44,.57-1.33,1.12-2.62,1.44-3.74s.43-2.08,.72-2.94c.29-.85,.78-1.62,1.73-2.55,.26,.45,.53,.89,.76,1.33,.92,1.75,1.28,3.6,1.37,5.36,.09,1.76-.08,3.43-.71,4.88s-1.72,2.68-3.2,3.44-3.33,1.06-5.01,.87c-1.31-.15-2.52-.6-3.62-1.25Z"/>
        <path class="cls-1" d="M126.94,122.35c.51-.87,1.41-.97,2.27-1.06,.85-.09,1.66-.17,2.37-.9s1.3-2.11,1.87-3.44c.57-1.33,1.12-2.62,1.44-3.74,.32-1.12,.43-2.08,.72-2.94,.29-.85,.78-1.62,1.73-2.55,.26,.45,.53,.89,.76,1.33,.92,1.75,1.28,3.6,1.37,5.36,.09,1.76-.08,3.43-.71,4.88s-1.72,2.68-3.2,3.44c-1.47,.76-3.33,1.06-5.01,.87-1.31-.15-2.52-.6-3.62-1.25Z"/>
        <path class="cls-1" d="M33.28,170.23c.51-.87,1.41-.97,2.27-1.06,.85-.09,1.66-.17,2.37-.9,.7-.73,1.3-2.11,1.87-3.44s1.12-2.62,1.44-3.74,.43-2.08,.72-2.94c.29-.85,.78-1.62,1.73-2.55,.26,.45,.53,.89,.76,1.33,.92,1.75,1.28,3.6,1.37,5.36,.09,1.76-.08,3.43-.71,4.88s-1.72,2.68-3.2,3.44-3.33,1.06-5.01,.87c-1.31-.15-2.52-.6-3.62-1.25Z"/>
        <path class="cls-1" d="M136.33,207.42c.51-.87,1.41-.97,2.27-1.06,.85-.09,1.66-.17,2.37-.9,.7-.73,1.3-2.11,1.87-3.44,.57-1.33,1.12-2.62,1.44-3.74,.32-1.12,.43-2.08,.72-2.94,.29-.85,.78-1.62,1.73-2.55,.26,.45,.53,.89,.76,1.33,.92,1.75,1.28,3.6,1.37,5.36,.09,1.76-.08,3.43-.71,4.88s-1.72,2.68-3.2,3.44-3.33,1.06-5.01,.87c-1.31-.15-2.52-.6-3.62-1.25Z"/>
        <path class="cls-1" d="M8.05,184.03c.51-.87,1.41-.97,2.27-1.06s1.66-.17,2.37-.9c.7-.73,1.3-2.11,1.87-3.44,.57-1.33,1.12-2.62,1.44-3.74,.32-1.12,.43-2.08,.72-2.94,.29-.85,.78-1.62,1.73-2.55,.26,.45,.53,.89,.76,1.33,.92,1.75,1.28,3.6,1.37,5.36,.09,1.76-.08,3.43-.71,4.88s-1.72,2.68-3.2,3.44c-1.47,.76-3.33,1.06-5.01,.87-1.31-.15-2.52-.6-3.62-1.25Z"/>
        <path class="cls-1" d="M8.16,263.67c.51-.87,1.41-.97,2.27-1.06,.85-.09,1.66-.17,2.37-.9,.7-.73,1.3-2.11,1.87-3.44s1.12-2.62,1.44-3.74,.43-2.08,.72-2.94c.29-.85,.78-1.62,1.73-2.55,.26,.45,.53,.89,.76,1.33,.92,1.75,1.28,3.6,1.37,5.36,.09,1.76-.08,3.43-.71,4.88s-1.72,2.68-3.2,3.44-3.33,1.06-5.01,.87c-1.31-.15-2.52-.6-3.62-1.25Z"/>
        <path class="cls-1" d="M114.42,260.58c.51-.87,1.41-.97,2.27-1.06,.85-.09,1.66-.17,2.37-.9,.7-.73,1.3-2.11,1.87-3.44,.57-1.33,1.12-2.62,1.44-3.74,.32-1.12,.43-2.08,.72-2.94,.29-.85,.78-1.62,1.73-2.55,.26,.45,.53,.89,.76,1.33,.92,1.75,1.28,3.6,1.37,5.36,.09,1.76-.08,3.43-.71,4.88s-1.72,2.68-3.2,3.44-3.33,1.06-5.01,.87c-1.31-.15-2.52-.6-3.62-1.25Z"/>
        <path class="cls-1" d="M249.9,217.55c.51-.87,1.41-.97,2.27-1.06,.85-.09,1.66-.17,2.37-.9,.7-.73,1.3-2.11,1.87-3.44s1.12-2.62,1.44-3.74c.32-1.12,.43-2.08,.72-2.94,.29-.85,.78-1.62,1.73-2.55,.26,.45,.53,.89,.77,1.33,.92,1.75,1.28,3.6,1.37,5.36,.09,1.76-.08,3.43-.71,4.88-.63,1.45-1.72,2.68-3.2,3.44s-3.33,1.06-5.01,.87c-1.31-.15-2.52-.6-3.62-1.25Z"/>
        <path class="cls-1" d="M218.65,21.75c.51-.87,1.41-.97,2.27-1.06,.85-.09,1.66-.17,2.37-.9,.7-.73,1.3-2.11,1.87-3.44,.57-1.33,1.12-2.62,1.44-3.74,.32-1.12,.43-2.08,.72-2.94,.29-.85,.78-1.62,1.73-2.55,.26,.45,.53,.89,.77,1.33,.92,1.75,1.28,3.6,1.37,5.36,.09,1.76-.08,3.43-.71,4.88-.63,1.45-1.72,2.68-3.2,3.44-1.47,.76-3.33,1.06-5.01,.87-1.31-.15-2.52-.6-3.62-1.25Z"/>
        <path class="cls-1" d="M93.95,121.74c.51-.87,1.41-.97,2.27-1.06,.85-.09,1.66-.17,2.37-.9,.7-.73,1.3-2.11,1.87-3.44,.57-1.33,1.12-2.62,1.44-3.74,.32-1.12,.43-2.08,.72-2.94,.29-.85,.78-1.62,1.73-2.55,.26,.45,.53,.89,.77,1.33,.92,1.75,1.28,3.6,1.37,5.36,.09,1.76-.08,3.43-.71,4.88-.63,1.45-1.72,2.68-3.2,3.44s-3.33,1.06-5.01,.87c-1.31-.15-2.52-.6-3.62-1.25Z"/>
        <path class="cls-1" d="M210.18,184.8c.51-.87,1.41-.97,2.27-1.06,.85-.09,1.66-.17,2.37-.9,.7-.73,1.3-2.11,1.87-3.44,.57-1.33,1.12-2.62,1.44-3.74,.32-1.12,.43-2.08,.72-2.94,.29-.85,.78-1.62,1.73-2.55,.26,.45,.53,.89,.77,1.33,.92,1.75,1.28,3.6,1.37,5.36,.09,1.76-.08,3.43-.71,4.88-.63,1.45-1.72,2.68-3.2,3.44s-3.33,1.06-5.01,.87c-1.31-.15-2.52-.6-3.62-1.25Z"/>
        <path class="cls-1" d="M187.23,256.93c.51-.87,1.41-.97,2.27-1.06s1.66-.17,2.37-.9c.7-.73,1.3-2.11,1.87-3.44s1.12-2.62,1.44-3.74,.43-2.08,.72-2.94c.29-.85,.78-1.62,1.73-2.55,.26,.45,.53,.89,.76,1.33,.92,1.75,1.28,3.6,1.37,5.36s-.08,3.43-.71,4.88-1.72,2.68-3.2,3.44c-1.47,.76-3.33,1.06-5.01,.87-1.31-.15-2.52-.6-3.62-1.25Z"/>
        <path class="cls-1" d="M58.77,197.91c.51-.87,1.41-.97,2.27-1.06s1.66-.17,2.37-.9c.7-.73,1.3-2.11,1.87-3.44,.57-1.33,1.12-2.62,1.44-3.74s.43-2.08,.72-2.94c.29-.85,.78-1.62,1.73-2.55,.26,.45,.53,.89,.76,1.33,.92,1.75,1.28,3.6,1.37,5.36,.09,1.76-.08,3.43-.71,4.88s-1.72,2.68-3.2,3.44c-1.47,.76-3.33,1.06-5.01,.87-1.31-.15-2.52-.6-3.62-1.25Z"/>
        <path class="cls-1" d="M158.27,50.82c.51-.87,1.41-.97,2.27-1.06,.85-.09,1.66-.17,2.37-.9,.7-.73,1.3-2.11,1.87-3.44,.57-1.33,1.12-2.62,1.44-3.74,.32-1.12,.43-2.08,.72-2.94,.29-.85,.78-1.62,1.73-2.55,.26,.45,.53,.89,.76,1.33,.92,1.75,1.28,3.6,1.37,5.36,.09,1.76-.08,3.43-.71,4.88s-1.72,2.68-3.2,3.44c-1.47,.76-3.33,1.06-5.01,.87-1.31-.15-2.52-.6-3.62-1.25Z"/>
      </g>
    </g>
    <g id="Seeds_2::Seed_2" data-name="Seeds 2::Seed 2">
      <g>
        <path class="cls-3" d="M146.63,166.12c.13,.06,.22-.31,.42-.6,.2-.29,.52-.49,.77-.96,.25-.47,.43-1.21,.5-2.05,.07-.83,.03-1.76-.08-2.52-.12-.76-.32-1.36-.55-1.77-.23-.41-.5-.61-.88-.74s-.88-.17-1.39-.09c-.51,.08-1.04,.27-1.3,.6-.26,.33-.26,.81-.26,1.49s0,1.57,.13,2.26,.38,1.16,.76,1.68c.38,.52,.9,1.08,1.24,1.61,.34,.53,.51,1.02,.64,1.08Z"/>
        <path class="cls-3" d="M166.15,110.47c.13,.06,.22-.31,.42-.6s.52-.49,.77-.96c.25-.47,.43-1.21,.5-2.05,.07-.83,.03-1.76-.08-2.52-.12-.76-.32-1.36-.55-1.77-.23-.41-.5-.61-.88-.74-.38-.13-.88-.17-1.39-.09-.51,.08-1.04,.27-1.3,.6s-.26,.81-.26,1.49,0,1.57,.13,2.26c.13,.68,.38,1.16,.76,1.68,.38,.52,.9,1.08,1.24,1.61,.34,.53,.51,1.02,.64,1.08Z"/>
        <path class="cls-3" d="M59.92,192.03c.13,.06,.22-.31,.42-.6,.2-.29,.52-.49,.77-.96,.25-.47,.43-1.21,.5-2.05,.07-.83,.03-1.76-.08-2.52-.12-.76-.32-1.36-.55-1.77-.23-.41-.5-.61-.88-.74-.38-.13-.88-.17-1.39-.09-.51,.08-1.04,.27-1.3,.6-.26,.33-.26,.81-.26,1.49s0,1.57,.13,2.26c.13,.68,.38,1.16,.76,1.68s.9,1.08,1.24,1.61,.51,1.02,.64,1.08Z"/>
        <path class="cls-3" d="M211.34,178.92c.13,.06,.22-.31,.42-.6,.2-.29,.52-.49,.77-.96,.25-.47,.43-1.21,.5-2.05,.07-.83,.03-1.76-.08-2.52-.12-.76-.32-1.36-.55-1.77-.23-.41-.5-.61-.88-.74-.38-.13-.88-.17-1.39-.09-.51,.08-1.04,.27-1.3,.6-.26,.33-.26,.81-.26,1.49s0,1.57,.13,2.26c.13,.68,.38,1.16,.76,1.68,.38,.52,.9,1.08,1.24,1.61,.34,.53,.51,1.02,.64,1.08Z"/>
        <path class="cls-3" d="M95.11,115.86c.13,.06,.22-.31,.42-.6s.52-.49,.77-.96c.25-.47,.43-1.21,.5-2.05,.07-.83,.03-1.76-.08-2.52-.12-.76-.32-1.36-.55-1.77-.23-.41-.5-.61-.88-.74-.38-.13-.88-.17-1.39-.09-.51,.08-1.04,.27-1.3,.6s-.26,.81-.26,1.49,0,1.57,.13,2.26c.13,.68,.38,1.16,.76,1.68,.38,.52,.9,1.08,1.24,1.61,.34,.53,.51,1.02,.64,1.08Z"/>
        <path class="cls-3" d="M137.48,201.54c.13,.06,.22-.31,.42-.6,.2-.29,.52-.49,.77-.96,.25-.47,.43-1.21,.5-2.05,.07-.83,.03-1.76-.08-2.52-.12-.76-.32-1.36-.55-1.77-.23-.41-.5-.61-.88-.74-.38-.13-.88-.17-1.39-.09-.51,.08-1.04,.27-1.3,.6-.26,.33-.26,.81-.26,1.49s0,1.57,.13,2.26c.13,.68,.38,1.16,.76,1.68,.38,.52,.9,1.08,1.24,1.61,.34,.53,.51,1.02,.64,1.08Z"/>
        <path class="cls-3" d="M188.39,251.05c.13,.06,.22-.31,.42-.6s.52-.49,.77-.96c.25-.47,.43-1.21,.5-2.05,.07-.83,.03-1.76-.08-2.52-.12-.76-.32-1.36-.55-1.77-.23-.41-.5-.61-.88-.74-.38-.13-.88-.17-1.39-.09-.51,.08-1.04,.27-1.3,.6-.26,.33-.26,.81-.26,1.49s0,1.57,.13,2.26c.13,.68,.38,1.16,.76,1.68s.9,1.08,1.24,1.61c.34,.53,.51,1.02,.64,1.08Z"/>
        <path class="cls-3" d="M251.06,211.67c.13,.06,.22-.31,.42-.6,.2-.29,.52-.49,.77-.96,.25-.47,.43-1.21,.5-2.05,.07-.83,.03-1.76-.08-2.52-.12-.76-.32-1.36-.55-1.77-.23-.41-.5-.61-.88-.74-.38-.13-.88-.17-1.39-.09-.51,.08-1.04,.27-1.3,.6-.26,.33-.26,.81-.26,1.49s0,1.57,.13,2.26,.38,1.16,.76,1.68c.38,.52,.9,1.08,1.24,1.61,.34,.53,.51,1.02,.64,1.08Z"/>
        <path class="cls-3" d="M115.58,254.7c.13,.06,.22-.31,.42-.6,.2-.29,.52-.49,.77-.96,.25-.47,.43-1.21,.5-2.05,.07-.83,.03-1.76-.08-2.52-.12-.76-.32-1.36-.55-1.77-.23-.41-.5-.61-.88-.74-.38-.13-.88-.17-1.39-.09-.51,.08-1.04,.27-1.3,.6-.26,.33-.26,.81-.26,1.49s0,1.57,.13,2.26c.13,.68,.38,1.16,.76,1.68,.38,.52,.9,1.08,1.24,1.61,.34,.53,.51,1.02,.64,1.08Z"/>
        <path class="cls-3" d="M9.32,257.79c.13,.06,.22-.31,.42-.6s.52-.49,.77-.96c.25-.47,.43-1.21,.5-2.05,.07-.83,.03-1.76-.08-2.52-.12-.76-.32-1.36-.55-1.77-.23-.41-.5-.61-.88-.74-.38-.13-.88-.17-1.39-.09-.51,.08-1.04,.27-1.3,.6-.26,.33-.26,.81-.26,1.49s0,1.57,.13,2.26,.38,1.16,.76,1.68c.38,.52,.9,1.08,1.24,1.61,.34,.53,.51,1.02,.64,1.08Z"/>
        <path class="cls-3" d="M9.21,178.15c.13,.06,.22-.31,.42-.6,.2-.29,.52-.49,.77-.96,.25-.47,.43-1.21,.5-2.05,.07-.83,.03-1.76-.08-2.52s-.32-1.36-.55-1.77c-.23-.41-.5-.61-.88-.74s-.88-.17-1.39-.09c-.51,.08-1.04,.27-1.3,.6-.26,.33-.26,.81-.26,1.49s0,1.57,.13,2.26c.13,.68,.38,1.16,.76,1.68,.38,.52,.9,1.08,1.24,1.61s.51,1.02,.64,1.08Z"/>
        <path class="cls-3" d="M219.81,15.87c.13,.06,.22-.31,.42-.6,.2-.29,.52-.49,.77-.96,.25-.47,.43-1.21,.5-2.05,.07-.83,.03-1.76-.08-2.52-.12-.76-.32-1.36-.55-1.77-.23-.41-.5-.61-.88-.74s-.88-.17-1.39-.09c-.51,.08-1.04,.27-1.3,.6-.26,.33-.26,.81-.26,1.49s0,1.57,.13,2.26c.13,.68,.38,1.16,.76,1.68,.38,.52,.9,1.08,1.24,1.61,.34,.53,.51,1.02,.64,1.08Z"/>
        <path class="cls-3" d="M34.43,164.35c.13,.06,.22-.31,.42-.6s.52-.49,.77-.96c.25-.47,.43-1.21,.5-2.05s.03-1.76-.08-2.52c-.12-.76-.32-1.36-.55-1.77-.23-.41-.5-.61-.88-.74-.38-.13-.88-.17-1.39-.09-.51,.08-1.04,.27-1.3,.6-.26,.33-.26,.81-.26,1.49s0,1.57,.13,2.26,.38,1.16,.76,1.68c.38,.52,.9,1.08,1.24,1.61,.34,.53,.51,1.02,.64,1.08Z"/>
        <path class="cls-3" d="M128.1,116.47c.13,.06,.22-.31,.42-.6,.2-.29,.52-.49,.77-.96,.25-.47,.43-1.21,.5-2.05,.07-.83,.03-1.76-.08-2.52s-.32-1.36-.55-1.77c-.23-.41-.5-.61-.88-.74-.38-.13-.88-.17-1.39-.09-.51,.08-1.04,.27-1.3,.6-.26,.33-.26,.81-.26,1.49s0,1.57,.13,2.26c.13,.68,.38,1.16,.76,1.68,.38,.52,.9,1.08,1.24,1.61s.51,1.02,.64,1.08Z"/>
        <path class="cls-3" d="M224.25,133.43c.13,.06,.22-.31,.42-.6s.52-.49,.77-.96c.25-.47,.43-1.21,.5-2.05,.07-.83,.03-1.76-.08-2.52-.12-.76-.32-1.36-.55-1.77-.23-.41-.5-.61-.88-.74-.38-.13-.88-.17-1.39-.09-.51,.08-1.04,.27-1.3,.6-.26,.33-.26,.81-.26,1.49s0,1.57,.13,2.26c.13,.68,.38,1.16,.76,1.68,.38,.52,.9,1.08,1.24,1.61,.34,.53,.51,1.02,.64,1.08Z"/>
        <path class="cls-3" d="M58.25,48.74c.13,.06,.22-.31,.42-.6s.52-.49,.77-.96c.25-.47,.43-1.21,.5-2.05,.07-.83,.03-1.76-.08-2.52-.12-.76-.32-1.36-.55-1.77-.23-.41-.5-.61-.88-.74-.38-.13-.88-.17-1.39-.09-.51,.08-1.04,.27-1.3,.6s-.26,.81-.26,1.49,0,1.57,.13,2.26c.13,.68,.38,1.16,.76,1.68,.38,.52,.9,1.08,1.24,1.61,.34,.53,.51,1.02,.64,1.08Z"/>
        <path class="cls-3" d="M247.98,70.86c.13,.06,.22-.31,.42-.6,.2-.29,.52-.49,.77-.96,.25-.47,.43-1.21,.5-2.05,.07-.83,.03-1.76-.08-2.52s-.32-1.36-.55-1.77c-.23-.41-.5-.61-.88-.74s-.88-.17-1.39-.09c-.51,.08-1.04,.27-1.3,.6-.26,.33-.26,.81-.26,1.49s0,1.57,.13,2.26c.13,.68,.38,1.16,.76,1.68,.38,.52,.9,1.08,1.24,1.61s.51,1.02,.64,1.08Z"/>
        <path class="cls-3" d="M52.63,226.62c.13,.06,.22-.31,.42-.6,.2-.29,.52-.49,.77-.96,.25-.47,.43-1.21,.5-2.05,.07-.83,.03-1.76-.08-2.52-.12-.76-.32-1.36-.55-1.77-.23-.41-.5-.61-.88-.74-.38-.13-.88-.17-1.39-.09-.51,.08-1.04,.27-1.3,.6-.26,.33-.26,.81-.26,1.49s0,1.57,.13,2.26c.13,.68,.38,1.16,.76,1.68,.38,.52,.9,1.08,1.24,1.61,.34,.53,.51,1.02,.64,1.08Z"/>
        <path class="cls-3" d="M95.39,59.21c.13,.06,.22-.31,.42-.6,.2-.29,.52-.49,.77-.96,.25-.47,.43-1.21,.5-2.05,.07-.83,.03-1.76-.08-2.52s-.32-1.36-.55-1.77c-.23-.41-.5-.61-.88-.74-.38-.13-.88-.17-1.39-.09-.51,.08-1.04,.27-1.3,.6-.26,.33-.26,.81-.26,1.49s0,1.57,.13,2.26c.13,.68,.38,1.16,.76,1.68,.38,.52,.9,1.08,1.24,1.61s.51,1.02,.64,1.08Z"/>
        <path class="cls-3" d="M159.43,44.94c.13,.06,.22-.31,.42-.6,.2-.29,.52-.49,.77-.96,.25-.47,.43-1.21,.5-2.05,.07-.83,.03-1.76-.08-2.52s-.32-1.36-.55-1.77c-.23-.41-.5-.61-.88-.74s-.88-.17-1.39-.09c-.51,.08-1.04,.27-1.3,.6-.26,.33-.26,.81-.26,1.49s0,1.57,.13,2.26c.13,.68,.38,1.16,.76,1.68,.38,.52,.9,1.08,1.24,1.61s.51,1.02,.64,1.08Z"/>
      </g>
    </g>
  </g>
  <g id="Seed_1" data-name="Seed 1">
    <g id="Seeds_1::Highlight_1" data-name="Seeds 1::Highlight 1">
      <g>
        <path class="cls-1" d="M47.67,262.53c.4-.86,1.15-.93,1.74-1.44,.59-.51,1.01-1.45,1.5-1.98,.5-.52,1.07-.63,1.58-1.07,.51-.44,.96-1.23,1.19-1.81,.23-.58,.25-.96,.44-1.46s.55-1.11,.72-2.08c.17-.98,.14-2.32,.18-3.67,.04-1.35,.15-2.7,1.03-4.61,.66,.79,1.26,1.61,1.77,2.38,.85,1.29,1.44,2.43,1.81,3.91s.53,3.28,.31,4.6c-.23,1.33-.85,2.17-2.2,3.37s-3.43,2.73-4.94,3.6c-1.51,.87-2.44,1.08-3.67,.79-.46-.11-.95-.29-1.47-.53Z"/>
        <path class="cls-1" d="M250.13,115.6c.4-.86,1.15-.93,1.74-1.44,.59-.51,1.01-1.45,1.5-1.98,.5-.52,1.07-.63,1.58-1.07,.51-.44,.96-1.23,1.19-1.81,.23-.58,.25-.96,.44-1.46,.19-.5,.55-1.11,.72-2.08s.14-2.32,.18-3.67,.15-2.7,1.03-4.61c.66,.79,1.26,1.61,1.77,2.38,.85,1.29,1.44,2.43,1.81,3.91,.37,1.47,.53,3.28,.31,4.6-.23,1.33-.85,2.17-2.2,3.37-1.35,1.19-3.43,2.73-4.94,3.6s-2.44,1.08-3.67,.79c-.45-.11-.95-.28-1.47-.53Z"/>
        <path class="cls-1" d="M253.03,164.33c.4-.86,1.15-.93,1.74-1.44,.59-.51,1.01-1.45,1.5-1.98s1.07-.63,1.58-1.07c.51-.44,.96-1.23,1.19-1.81,.23-.58,.25-.96,.44-1.46,.19-.5,.55-1.11,.72-2.08s.14-2.32,.18-3.67c.04-1.35,.15-2.7,1.03-4.61,.66,.79,1.26,1.61,1.77,2.38,.85,1.29,1.44,2.43,1.81,3.91,.37,1.47,.53,3.28,.31,4.6-.23,1.33-.85,2.17-2.2,3.37-1.35,1.19-3.43,2.73-4.94,3.6s-2.44,1.08-3.67,.79c-.45-.11-.95-.28-1.47-.53Z"/>
        <path class="cls-1" d="M184.64,24.09c.4-.86,1.15-.93,1.74-1.44,.59-.51,1.01-1.45,1.5-1.98s1.07-.63,1.58-1.07c.51-.44,.96-1.23,1.19-1.81,.23-.58,.25-.96,.44-1.46,.19-.5,.55-1.11,.72-2.08s.14-2.32,.18-3.67c.04-1.35,.15-2.7,1.03-4.61,.66,.79,1.26,1.61,1.77,2.38,.85,1.29,1.44,2.43,1.81,3.91,.37,1.47,.53,3.28,.31,4.6-.23,1.33-.85,2.17-2.2,3.37s-3.43,2.73-4.94,3.6-2.44,1.08-3.67,.79c-.45-.11-.95-.28-1.47-.53Z"/>
        <path class="cls-1" d="M22.82,51.42c.4-.86,1.15-.93,1.74-1.44,.59-.51,1.01-1.45,1.5-1.98,.5-.52,1.07-.63,1.58-1.07,.51-.44,.96-1.23,1.19-1.81,.23-.58,.25-.96,.44-1.46s.55-1.11,.72-2.08c.17-.98,.14-2.32,.18-3.67,.04-1.35,.15-2.7,1.03-4.61,.66,.79,1.26,1.61,1.77,2.38,.85,1.29,1.44,2.43,1.81,3.91s.53,3.28,.31,4.6c-.23,1.33-.85,2.17-2.2,3.37-1.35,1.19-3.43,2.73-4.94,3.6-1.51,.87-2.44,1.08-3.67,.79-.46-.11-.95-.29-1.47-.53Z"/>
        <path class="cls-1" d="M237.48,262.04c.4-.86,1.15-.93,1.74-1.44,.59-.51,1.01-1.45,1.5-1.98,.5-.52,1.07-.63,1.58-1.07,.51-.44,.96-1.23,1.19-1.81,.23-.58,.25-.96,.44-1.46,.19-.5,.55-1.11,.72-2.08s.14-2.32,.18-3.67c.04-1.35,.15-2.7,1.03-4.61,.66,.79,1.26,1.61,1.77,2.38,.85,1.29,1.44,2.43,1.81,3.91,.37,1.47,.53,3.28,.31,4.6s-.85,2.17-2.2,3.37-3.43,2.73-4.94,3.6c-1.51,.87-2.44,1.08-3.67,.79-.45-.11-.95-.28-1.47-.53Z"/>
        <path class="cls-1" d="M179.96,154.1c.4-.86,1.15-.93,1.74-1.44,.59-.51,1.01-1.45,1.5-1.98s1.07-.63,1.58-1.07,.96-1.23,1.19-1.81c.23-.58,.25-.96,.44-1.46,.19-.5,.55-1.11,.72-2.08,.17-.98,.14-2.32,.18-3.67s.15-2.7,1.03-4.61c.66,.79,1.26,1.61,1.77,2.38,.85,1.29,1.44,2.43,1.81,3.91s.53,3.28,.31,4.6c-.23,1.33-.85,2.17-2.2,3.37s-3.43,2.73-4.94,3.6-2.44,1.08-3.67,.79c-.45-.11-.95-.28-1.47-.53Z"/>
        <path class="cls-1" d="M101.81,230.65c.4-.86,1.15-.93,1.74-1.44,.59-.51,1.01-1.45,1.5-1.98,.5-.52,1.07-.63,1.58-1.07,.51-.44,.96-1.23,1.19-1.81s.25-.96,.44-1.46,.55-1.11,.72-2.08c.17-.98,.14-2.32,.18-3.67s.15-2.7,1.03-4.61c.66,.79,1.26,1.61,1.77,2.38,.85,1.29,1.44,2.43,1.81,3.91,.37,1.47,.53,3.28,.31,4.6-.23,1.33-.85,2.17-2.2,3.37-1.35,1.19-3.43,2.73-4.94,3.6s-2.44,1.08-3.67,.79c-.45-.11-.95-.28-1.47-.53Z"/>
        <path class="cls-1" d="M206.78,79.81c.4-.86,1.15-.93,1.74-1.44,.59-.51,1.01-1.45,1.5-1.98s1.07-.63,1.58-1.07c.51-.44,.96-1.23,1.19-1.81,.23-.58,.25-.96,.44-1.46,.19-.5,.55-1.11,.72-2.08s.14-2.32,.18-3.67c.04-1.35,.15-2.7,1.03-4.61,.66,.79,1.26,1.61,1.77,2.38,.85,1.29,1.44,2.43,1.81,3.91s.53,3.28,.31,4.6c-.23,1.33-.85,2.17-2.2,3.37s-3.43,2.73-4.94,3.6-2.44,1.08-3.67,.79c-.45-.11-.95-.28-1.47-.53Z"/>
        <path class="cls-1" d="M252.89,30.91c.4-.86,1.15-.93,1.74-1.44s1.01-1.45,1.5-1.98c.5-.52,1.07-.63,1.58-1.07,.51-.44,.96-1.23,1.19-1.81,.23-.58,.25-.96,.44-1.46,.19-.5,.55-1.11,.72-2.08s.14-2.32,.18-3.67c.04-1.35,.15-2.7,1.03-4.61,.66,.79,1.26,1.61,1.77,2.38,.85,1.29,1.44,2.43,1.81,3.91s.53,3.28,.31,4.6c-.23,1.33-.85,2.17-2.2,3.37-1.35,1.19-3.43,2.73-4.94,3.6-1.51,.87-2.44,1.08-3.67,.79-.45-.11-.95-.28-1.47-.53Z"/>
        <path class="cls-1" d="M67.95,93.5c.4-.86,1.15-.93,1.74-1.44,.59-.51,1.01-1.45,1.5-1.98s1.07-.63,1.58-1.07c.51-.44,.96-1.23,1.19-1.81,.23-.58,.25-.96,.44-1.46,.19-.5,.55-1.11,.72-2.08,.17-.98,.14-2.32,.18-3.67s.15-2.7,1.03-4.61c.66,.79,1.26,1.61,1.77,2.38,.85,1.29,1.44,2.43,1.81,3.91,.37,1.47,.53,3.28,.31,4.6-.23,1.33-.85,2.17-2.2,3.37s-3.43,2.73-4.94,3.6-2.44,1.08-3.67,.79c-.45-.11-.95-.28-1.47-.53Z"/>
        <path class="cls-1" d="M139.27,89.21c.4-.86,1.15-.93,1.74-1.44,.59-.51,1.01-1.45,1.5-1.98s1.07-.63,1.58-1.07c.51-.44,.96-1.23,1.19-1.81,.23-.58,.25-.96,.44-1.46s.55-1.11,.72-2.08c.17-.98,.14-2.32,.18-3.67s.15-2.7,1.03-4.61c.66,.79,1.26,1.61,1.77,2.38,.85,1.29,1.44,2.43,1.81,3.91,.37,1.47,.53,3.28,.31,4.6-.23,1.33-.85,2.17-2.2,3.37-1.35,1.19-3.43,2.73-4.94,3.6s-2.44,1.08-3.67,.79c-.45-.11-.95-.28-1.47-.53Z"/>
        <path class="cls-1" d="M19.53,217.39c.4-.86,1.15-.93,1.74-1.44,.59-.51,1.01-1.45,1.5-1.98s1.07-.63,1.58-1.07c.51-.44,.96-1.23,1.19-1.81,.23-.58,.25-.96,.44-1.46s.55-1.11,.72-2.08c.17-.98,.14-2.32,.18-3.67s.15-2.7,1.03-4.61c.66,.79,1.26,1.61,1.77,2.38,.85,1.29,1.44,2.43,1.81,3.91,.37,1.47,.53,3.28,.31,4.6-.23,1.33-.85,2.17-2.2,3.37-1.35,1.19-3.43,2.73-4.94,3.6s-2.44,1.08-3.67,.79c-.45-.11-.95-.28-1.47-.53Z"/>
        <path class="cls-1" d="M70.7,24.34c.4-.86,1.15-.93,1.74-1.44,.59-.51,1.01-1.45,1.5-1.98s1.07-.63,1.58-1.07,.96-1.23,1.19-1.81c.23-.58,.25-.96,.44-1.46s.55-1.11,.72-2.08c.17-.98,.14-2.32,.18-3.67s.15-2.7,1.03-4.61c.66,.79,1.26,1.61,1.77,2.38,.85,1.29,1.44,2.43,1.81,3.91s.53,3.28,.31,4.6c-.23,1.33-.85,2.17-2.2,3.37s-3.43,2.73-4.94,3.6-2.44,1.08-3.67,.79c-.46-.11-.95-.28-1.47-.53Z"/>
        <path class="cls-1" d="M182.93,208.35c.4-.86,1.15-.93,1.74-1.44,.59-.51,1.01-1.45,1.5-1.98s1.07-.63,1.58-1.07c.51-.44,.96-1.23,1.19-1.81,.23-.58,.25-.96,.44-1.46,.19-.5,.55-1.11,.72-2.08,.17-.98,.14-2.32,.18-3.67s.15-2.7,1.03-4.61c.66,.79,1.26,1.61,1.77,2.38,.85,1.29,1.44,2.43,1.81,3.91s.53,3.28,.31,4.6c-.23,1.33-.85,2.17-2.2,3.37s-3.43,2.73-4.94,3.6-2.44,1.08-3.67,.79c-.45-.11-.95-.28-1.47-.53Z"/>
        <path class="cls-1" d="M24,109.71c.4-.86,1.15-.93,1.74-1.44,.59-.51,1.01-1.45,1.5-1.98s1.07-.63,1.58-1.07c.51-.44,.96-1.23,1.19-1.81,.23-.58,.25-.96,.44-1.46,.19-.5,.55-1.11,.72-2.08,.17-.98,.14-2.32,.18-3.67,.04-1.35,.15-2.7,1.03-4.61,.66,.79,1.26,1.61,1.77,2.38,.85,1.29,1.44,2.43,1.81,3.91s.53,3.28,.31,4.6c-.23,1.33-.85,2.17-2.2,3.37s-3.43,2.73-4.94,3.6-2.44,1.08-3.67,.79c-.46-.11-.95-.28-1.47-.53Z"/>
        <path class="cls-1" d="M149.97,256.44c.4-.86,1.15-.93,1.74-1.44,.59-.51,1.01-1.45,1.5-1.98s1.07-.63,1.58-1.07c.51-.44,.96-1.23,1.19-1.81,.23-.58,.25-.96,.44-1.46,.19-.5,.55-1.11,.72-2.08s.14-2.32,.18-3.67c.04-1.35,.15-2.7,1.03-4.61,.66,.79,1.26,1.61,1.77,2.38,.85,1.29,1.44,2.43,1.81,3.91,.37,1.47,.53,3.28,.31,4.6-.23,1.33-.85,2.17-2.2,3.37s-3.43,2.73-4.94,3.6-2.44,1.08-3.67,.79c-.45-.11-.95-.28-1.47-.53Z"/>
        <path class="cls-1" d="M120.55,23.9c.4-.86,1.15-.93,1.74-1.44,.59-.51,1.01-1.45,1.5-1.98,.5-.52,1.07-.63,1.58-1.07,.51-.44,.96-1.23,1.19-1.81,.23-.58,.25-.96,.44-1.46,.19-.5,.55-1.11,.72-2.08s.14-2.32,.18-3.67,.15-2.7,1.03-4.61c.66,.79,1.26,1.61,1.77,2.38,.85,1.29,1.44,2.43,1.81,3.91,.37,1.47,.53,3.28,.31,4.6s-.85,2.17-2.2,3.37c-1.35,1.19-3.43,2.73-4.94,3.6-1.51,.87-2.44,1.08-3.67,.79-.45-.11-.95-.28-1.47-.53Z"/>
        <path class="cls-1" d="M14.9,140.69c.4-.86,1.15-.93,1.74-1.44,.59-.51,1.01-1.45,1.5-1.98,.5-.52,1.07-.63,1.58-1.07,.51-.44,.96-1.23,1.19-1.81,.23-.58,.25-.96,.44-1.46,.19-.5,.55-1.11,.72-2.08,.17-.98,.14-2.32,.18-3.67,.04-1.35,.15-2.7,1.03-4.61,.66,.79,1.26,1.61,1.77,2.38,.85,1.29,1.44,2.43,1.81,3.91s.53,3.28,.31,4.6c-.23,1.33-.85,2.17-2.2,3.37s-3.43,2.73-4.94,3.6-2.44,1.08-3.67,.79c-.45-.11-.95-.28-1.47-.53Z"/>
        <path class="cls-1" d="M112.1,167.45c.4-.86,1.15-.93,1.74-1.44s1.01-1.45,1.5-1.98c.5-.52,1.07-.63,1.58-1.07,.51-.44,.96-1.23,1.19-1.81,.23-.58,.25-.96,.44-1.46,.19-.5,.55-1.11,.72-2.08,.17-.98,.14-2.32,.18-3.67,.04-1.35,.15-2.7,1.03-4.61,.66,.79,1.26,1.61,1.77,2.38,.85,1.29,1.44,2.43,1.81,3.91s.53,3.28,.31,4.6c-.23,1.33-.85,2.17-2.2,3.37s-3.43,2.73-4.94,3.6c-1.51,.87-2.44,1.08-3.67,.79-.45-.11-.95-.28-1.47-.53Z"/>
        <path class="cls-1" d="M66.37,155.36c.4-.86,1.15-.93,1.74-1.44,.59-.51,1.01-1.45,1.5-1.98s1.07-.63,1.58-1.07c.51-.44,.96-1.23,1.19-1.81,.23-.58,.25-.96,.44-1.46s.55-1.11,.72-2.08,.14-2.32,.18-3.67,.15-2.7,1.03-4.61c.66,.79,1.26,1.61,1.77,2.38,.85,1.29,1.44,2.43,1.81,3.91s.53,3.28,.31,4.6c-.23,1.33-.85,2.17-2.2,3.37s-3.43,2.73-4.94,3.6-2.44,1.08-3.67,.79c-.45-.11-.95-.28-1.47-.53Z"/>
      </g>
    </g>
    <g id="Seeds_1::Seed_1" data-name="Seeds 1::Seed 1">
      <g>
        <path class="cls-3" d="M67.51,86.4c.22-.07,.37-.42,.55-.67s.41-.39,.68-.47c.26-.08,.56-.1,.74-.54,.19-.44,.26-1.31,.27-2.24,0-.93-.06-1.92-.29-2.69-.22-.77-.61-1.31-.92-1.7-.31-.39-.56-.62-1.04-.72-.48-.1-1.18-.07-1.7,.11-.51,.18-.84,.52-.97,1.3-.13,.79-.08,2.03,.08,3.17,.15,1.14,.4,2.18,.71,2.84,.31,.66,.68,.95,1.02,1.2s.64,.47,.87,.41Z"/>
        <path class="cls-3" d="M252.45,23.81c.22-.07,.37-.42,.55-.67s.41-.39,.68-.47c.26-.08,.56-.1,.74-.54,.19-.44,.26-1.31,.27-2.24s-.06-1.92-.29-2.69c-.22-.77-.61-1.31-.92-1.7-.31-.39-.56-.62-1.04-.72-.48-.1-1.18-.07-1.7,.11-.52,.18-.84,.52-.97,1.3-.13,.79-.08,2.03,.08,3.17,.15,1.14,.4,2.18,.71,2.84,.31,.66,.68,.95,1.02,1.2,.34,.25,.64,.47,.87,.41Z"/>
        <path class="cls-3" d="M120.11,16.8c.22-.07,.37-.42,.55-.67,.19-.25,.41-.39,.68-.47s.56-.1,.74-.54c.19-.44,.26-1.31,.27-2.24,0-.93-.06-1.92-.29-2.69-.22-.77-.61-1.31-.92-1.7-.31-.39-.56-.62-1.04-.72-.48-.1-1.18-.07-1.7,.11-.52,.18-.84,.51-.97,1.3-.13,.79-.08,2.03,.08,3.17s.4,2.18,.71,2.84c.31,.66,.68,.95,1.02,1.2,.34,.25,.64,.47,.87,.41Z"/>
        <path class="cls-3" d="M237.04,254.94c.22-.07,.37-.42,.55-.67s.41-.39,.68-.47c.26-.08,.56-.1,.74-.54,.19-.44,.26-1.31,.27-2.24,0-.93-.06-1.92-.29-2.69s-.61-1.31-.92-1.7c-.31-.39-.56-.62-1.04-.72-.48-.1-1.18-.07-1.7,.11-.51,.18-.84,.52-.97,1.3-.13,.79-.08,2.03,.08,3.17,.15,1.14,.4,2.18,.71,2.84,.31,.66,.68,.95,1.02,1.2,.34,.25,.64,.47,.87,.41Z"/>
        <path class="cls-3" d="M47.23,255.43c.22-.07,.37-.42,.55-.67s.41-.39,.68-.47c.26-.08,.56-.1,.74-.54,.19-.44,.26-1.31,.27-2.24s-.06-1.92-.29-2.69c-.22-.77-.61-1.31-.92-1.7-.31-.39-.56-.62-1.04-.72-.48-.1-1.18-.07-1.7,.11-.52,.18-.84,.52-.97,1.3-.13,.79-.08,2.03,.08,3.17,.15,1.14,.4,2.18,.71,2.84,.31,.66,.68,.95,1.02,1.2,.34,.25,.64,.47,.87,.41Z"/>
        <path class="cls-3" d="M22.39,44.32c.22-.07,.37-.42,.55-.67s.41-.39,.68-.47,.56-.1,.74-.54c.19-.44,.26-1.31,.27-2.24s-.06-1.92-.29-2.69c-.22-.77-.61-1.31-.92-1.7-.31-.39-.56-.62-1.04-.72-.48-.1-1.18-.07-1.7,.11-.52,.18-.84,.52-.97,1.3-.13,.79-.08,2.03,.08,3.17,.15,1.14,.4,2.18,.71,2.84s.68,.95,1.02,1.2c.34,.25,.64,.47,.87,.41Z"/>
        <path class="cls-3" d="M65.93,148.26c.22-.07,.37-.42,.55-.67s.41-.39,.68-.47c.26-.08,.56-.1,.74-.54,.19-.44,.26-1.31,.27-2.24,0-.93-.06-1.92-.29-2.69-.22-.77-.61-1.31-.92-1.7s-.56-.62-1.04-.72-1.18-.07-1.7,.11-.84,.52-.97,1.3-.08,2.03,.08,3.17c.15,1.14,.4,2.18,.71,2.84,.31,.66,.68,.95,1.02,1.2,.34,.25,.64,.47,.87,.41Z"/>
        <path class="cls-3" d="M249.69,108.5c.22-.07,.37-.42,.55-.67s.41-.39,.68-.47,.56-.1,.74-.54c.19-.44,.26-1.31,.27-2.24,0-.93-.06-1.92-.29-2.69-.22-.77-.61-1.31-.92-1.7s-.56-.62-1.04-.72c-.48-.1-1.18-.07-1.7,.11-.51,.18-.84,.52-.97,1.3s-.08,2.03,.08,3.17,.4,2.18,.71,2.84,.68,.95,1.02,1.2c.34,.25,.64,.47,.87,.41Z"/>
        <path class="cls-3" d="M149.53,249.34c.22-.07,.37-.42,.55-.67s.41-.39,.68-.47c.26-.08,.56-.1,.74-.54,.19-.44,.26-1.31,.27-2.24,0-.93-.06-1.92-.29-2.69s-.61-1.31-.92-1.7c-.31-.39-.56-.62-1.04-.72-.48-.1-1.18-.07-1.7,.11-.51,.18-.84,.52-.97,1.3-.13,.79-.08,2.03,.08,3.17,.15,1.14,.4,2.18,.71,2.84,.31,.66,.68,.95,1.02,1.2,.34,.25,.64,.47,.87,.41Z"/>
        <path class="cls-3" d="M101.37,223.55c.22-.07,.37-.42,.55-.67s.41-.39,.68-.47c.26-.08,.56-.1,.74-.54s.26-1.31,.27-2.24c0-.93-.06-1.92-.29-2.69-.22-.77-.61-1.31-.92-1.7-.31-.39-.56-.62-1.04-.72-.48-.1-1.18-.07-1.7,.11-.52,.18-.84,.51-.97,1.3-.13,.79-.08,2.03,.08,3.17s.4,2.18,.71,2.84,.68,.95,1.02,1.2c.34,.25,.64,.47,.87,.41Z"/>
        <path class="cls-3" d="M23.56,102.61c.22-.07,.37-.42,.55-.67s.41-.39,.68-.47c.26-.08,.56-.1,.74-.54,.19-.44,.26-1.31,.27-2.24s-.06-1.92-.29-2.69c-.22-.77-.61-1.31-.92-1.7-.31-.39-.56-.62-1.04-.72-.48-.1-1.18-.07-1.7,.11s-.84,.52-.97,1.3c-.13,.79-.08,2.03,.08,3.17,.15,1.14,.4,2.18,.71,2.84,.31,.66,.68,.95,1.02,1.2s.64,.47,.87,.41Z"/>
        <path class="cls-3" d="M179.52,147c.22-.07,.37-.42,.55-.67s.41-.39,.68-.47c.26-.08,.56-.1,.74-.54,.19-.44,.26-1.31,.27-2.24,0-.93-.06-1.92-.29-2.69-.22-.77-.61-1.31-.92-1.7-.31-.39-.56-.62-1.04-.72-.48-.1-1.18-.07-1.7,.11s-.84,.52-.97,1.3c-.13,.79-.08,2.03,.08,3.17,.15,1.14,.4,2.18,.71,2.84,.31,.66,.68,.95,1.02,1.2s.64,.47,.87,.41Z"/>
        <path class="cls-3" d="M182.5,201.25c.22-.07,.37-.42,.55-.67s.41-.39,.68-.47c.26-.08,.56-.1,.74-.54,.19-.44,.26-1.31,.27-2.24,0-.93-.06-1.92-.29-2.69-.22-.77-.61-1.31-.92-1.7s-.56-.62-1.04-.72-1.18-.07-1.7,.11c-.51,.18-.84,.52-.97,1.3-.13,.79-.08,2.03,.08,3.17,.15,1.14,.4,2.18,.71,2.84,.31,.66,.68,.95,1.02,1.2,.34,.25,.64,.47,.87,.41Z"/>
        <path class="cls-3" d="M70.27,17.24c.22-.07,.37-.42,.55-.67s.41-.39,.68-.47,.56-.1,.74-.54c.19-.44,.26-1.31,.27-2.24,0-.93-.06-1.92-.29-2.69-.22-.77-.61-1.31-.92-1.7s-.56-.62-1.04-.72c-.48-.1-1.18-.07-1.7,.11s-.84,.52-.97,1.3c-.13,.79-.08,2.03,.08,3.17,.15,1.14,.4,2.18,.71,2.84,.31,.66,.68,.95,1.02,1.2s.64,.47,.87,.41Z"/>
        <path class="cls-3" d="M14.46,133.59c.22-.07,.37-.42,.55-.67s.41-.39,.68-.47c.26-.08,.56-.1,.74-.54,.19-.44,.26-1.31,.27-2.24s-.06-1.92-.29-2.69c-.22-.77-.61-1.31-.92-1.7-.31-.39-.56-.62-1.04-.72-.48-.1-1.18-.07-1.7,.11-.52,.18-.84,.52-.97,1.3-.13,.79-.08,2.03,.08,3.17,.15,1.14,.4,2.18,.71,2.84,.31,.66,.68,.95,1.02,1.2,.34,.25,.64,.47,.87,.41Z"/>
        <path class="cls-3" d="M206.34,72.71c.22-.07,.37-.42,.55-.67s.41-.39,.68-.47c.26-.08,.56-.1,.74-.54,.19-.44,.26-1.31,.27-2.24,0-.93-.06-1.92-.29-2.69-.22-.77-.61-1.31-.92-1.7s-.56-.62-1.04-.72c-.48-.1-1.18-.07-1.7,.11-.52,.18-.84,.52-.97,1.3-.13,.79-.08,2.03,.08,3.17,.15,1.14,.4,2.18,.71,2.84,.31,.66,.68,.95,1.02,1.2,.34,.25,.64,.47,.87,.41Z"/>
        <path class="cls-3" d="M252.6,157.23c.22-.07,.37-.42,.55-.67s.41-.39,.68-.47c.26-.08,.56-.1,.74-.54,.19-.44,.26-1.31,.27-2.24,0-.93-.06-1.92-.29-2.69-.22-.77-.61-1.31-.92-1.7-.31-.39-.56-.62-1.04-.72-.48-.1-1.18-.07-1.7,.11-.52,.18-.84,.52-.97,1.3-.13,.79-.08,2.03,.08,3.17,.15,1.14,.4,2.18,.71,2.84,.31,.66,.68,.95,1.02,1.2s.64,.47,.87,.41Z"/>
        <path class="cls-3" d="M184.2,16.99c.22-.07,.37-.42,.55-.67s.41-.39,.68-.47c.26-.08,.56-.1,.74-.54,.19-.44,.26-1.31,.27-2.24,0-.93-.06-1.92-.29-2.69s-.61-1.31-.92-1.7c-.31-.39-.56-.62-1.04-.72-.48-.1-1.18-.07-1.7,.11-.51,.18-.84,.52-.97,1.3-.13,.79-.08,2.03,.08,3.17,.15,1.14,.4,2.18,.71,2.84,.31,.66,.68,.95,1.02,1.2,.34,.25,.64,.47,.87,.41Z"/>
        <path class="cls-3" d="M19.09,210.29c.22-.07,.37-.42,.55-.67s.41-.39,.68-.47c.26-.08,.56-.1,.74-.54,.19-.44,.26-1.31,.27-2.24,0-.93-.06-1.92-.29-2.69-.22-.77-.61-1.31-.92-1.7s-.56-.62-1.04-.72c-.48-.1-1.18-.07-1.7,.11-.52,.18-.84,.52-.97,1.3-.13,.79-.08,2.03,.08,3.17,.15,1.14,.4,2.18,.71,2.84,.31,.66,.68,.95,1.02,1.2,.34,.25,.64,.47,.87,.41Z"/>
        <path class="cls-3" d="M111.66,160.35c.22-.07,.37-.42,.55-.67s.41-.39,.68-.47c.26-.08,.56-.1,.74-.54,.19-.44,.26-1.31,.27-2.24s-.06-1.92-.29-2.69c-.22-.77-.61-1.31-.92-1.7-.31-.39-.56-.62-1.04-.72-.48-.1-1.18-.07-1.7,.11-.52,.18-.84,.52-.97,1.3-.13,.79-.08,2.03,.08,3.17,.15,1.14,.4,2.18,.71,2.84,.31,.66,.68,.95,1.02,1.2,.34,.25,.64,.47,.87,.41Z"/>
        <path class="cls-3" d="M138.83,82.11c.22-.07,.37-.42,.55-.67s.41-.39,.68-.47,.56-.1,.74-.54c.19-.44,.26-1.31,.27-2.24,0-.93-.06-1.92-.29-2.69-.22-.77-.61-1.31-.92-1.7s-.56-.62-1.04-.72c-.48-.1-1.18-.07-1.7,.11-.52,.18-.84,.52-.97,1.3-.13,.79-.08,2.03,.08,3.17,.15,1.14,.4,2.18,.71,2.84,.31,.66,.68,.95,1.02,1.2,.34,.25,.64,.47,.87,.41Z"/>
      </g>
    </g>
  </g>
</svg>