<?xml version="1.0" encoding="utf-8"?>
<!-- Generator: Adobe Illustrator 26.4.1, SVG Export Plug-In . SVG Version: 6.00 Build 0)  -->
<svg version="1.1" id="Layer_1" xmlns="http://www.w3.org/2000/svg" xmlns:xlink="http://www.w3.org/1999/xlink" x="0px" y="0px"
	 viewBox="0 0 100 100" style="enable-background:new 0 0 100 100;" xml:space="preserve">
<style type="text/css">
	.st0{fill:none;}
</style>
<g>
	<g>
		<path class="st0" d="M0,6c0-2,0-4,0-6c33.3,0,66.7,0,100,0c0,33.3,0,66.7,0,100c-6.3,0-12.7,0-19,0c0.7-0.6,1.4-1.3,2.1-2
			c2.8-2.7,3.4-5.7,2.1-9.5s-3.6-4.8-7.4-4.6c-8.6,0.3-17.3,0-26,0.1c-3.9,0-6.3-1.5-7.1-5.4c-0.4-2.1-1.1-4.1-1.7-6.6
			c11.3,0,22.1-0.2,32.9,0.1c4.1,0.1,5.8-1.4,7.1-5c3.7-10.3,7.7-20.5,11.6-30.8c2.2-5.9,2-6.3-4.2-6.3c-17.6,0-35.3-0.2-52.9,0.1
			c-4,0.1-5.5-1.3-6.2-5c-0.8-4.4-1.8-8.8-3.3-13c-0.9-2.5-2.7-5.8-4.8-6.5C15.5,3.2,7.6,2.4,0,6z M40.5,25.7c10,0,18.7,0,28.5,0
			c-4.4-4.4-8-8.2-12-11.7c-0.9-0.8-3.6-0.8-4.5,0C48.6,17.5,45,21.3,40.5,25.7z M84.7,25.2c-3.5-3.3-6.6-6.3-9.7-9.3
			c-4.6-4.5-4.7-4.5-9,1.1C70.9,22.1,74.9,28.7,84.7,25.2z"/>
		<path class="st0" d="M49,100c-16.3,0-32.7,0-49,0c0-30,0-60,0-90c2.2,1.5,4.3,3.2,7,0.5c5.9-5.9,15.9-3.1,17.9,5
			c2.8,11,5,22.1,8.3,32.9C37,61.2,37,75.2,44.9,86.7c0.3,0.4,0.2,1.3-0.1,1.9C42.4,93.8,45.5,97,49,100z"/>
		<path d="M49,100c-3.5-3-6.6-6.2-4.2-11.5c0.2-0.5,0.3-1.4,0.1-1.9C37,75.2,37,61.2,33.1,48.4c-3.3-10.8-5.5-21.9-8.3-32.9
			c-2-8.1-12-10.9-17.9-5c-2.7,2.7-4.8,1-7-0.5c0-1.3,0-2.7,0-4C7.5,2.4,15.4,3.2,23,5.6c2.1,0.7,3.9,4,4.8,6.5
			c1.6,4.2,2.5,8.6,3.3,13c0.7,3.7,2.2,5.1,6.2,5C55.1,29.8,72.7,30,90.4,30c6.1,0,6.4,0.4,4.2,6.3c-3.9,10.2-8,20.4-11.6,30.8
			c-1.3,3.7-3,5.2-7.1,5C65,71.8,54.2,72,43,72c0.7,2.5,1.3,4.5,1.7,6.6c0.8,3.9,3.2,5.5,7.1,5.4c8.7-0.1,17.3,0.2,26-0.1
			c3.9-0.1,6.1,0.9,7.4,4.6c1.3,3.8,0.7,6.8-2.1,9.5c-0.7,0.7-1.4,1.3-2.1,2c-2,0-4,0-6,0c-4-2.9-6.2-6.6-4.4-11.7
			c-4,0-7.6,0-11.5,0c2.3,5.4-0.5,8.7-4.1,11.7C53,100,51,100,49,100z M51.7,86.3c-1.7,2.8-3.5,4.5-3.4,6c0.1,1.3,2.8,3.6,3.7,3.3
			c1.6-0.5,3.4-2.5,3.6-4.1C55.9,90.4,53.7,88.8,51.7,86.3z M78.3,86.1c-2.1,2.8-4,4.4-4,5.9c0,1.3,2.2,3.6,3.5,3.6
			c1.3,0.1,3.7-1.9,3.9-3.2C81.8,90.9,80.1,89.2,78.3,86.1z"/>
		<path class="st0" d="M55,100c3.6-3,6.5-6.3,4.1-11.7c3.9,0,7.5,0,11.5,0C68.8,93.4,71,97.1,75,100C68.3,100,61.7,100,55,100z"/>
		<path d="M40.5,25.7c4.4-4.4,8-8.2,12-11.7c0.9-0.8,3.6-0.8,4.5,0c4,3.4,7.6,7.3,12.1,11.7C59.2,25.7,50.5,25.7,40.5,25.7z"/>
		<path d="M84.7,25.2c-9.8,3.6-13.9-3-18.7-8.2c4.3-5.6,4.5-5.6,9-1.1C78.1,18.9,81.2,21.8,84.7,25.2z"/>
		<path class="st0" d="M51.7,86.3c2,2.5,4.1,4.1,4,5.2c-0.2,1.6-2.1,3.6-3.6,4.1c-0.9,0.3-3.6-2-3.7-3.3
			C48.2,90.8,50,89.1,51.7,86.3z"/>
		<path class="st0" d="M78.3,86.1c1.7,3.1,3.5,4.8,3.3,6.3c-0.1,1.3-2.6,3.3-3.9,3.2c-1.3-0.1-3.5-2.4-3.5-3.6
			C74.3,90.5,76.3,89,78.3,86.1z"/>
	</g>
</g>
</svg>
