<?xml version="1.0" encoding="utf-8"?>
<!-- Generator: Adobe Illustrator 26.4.1, SVG Export Plug-In . SVG Version: 6.00 Build 0)  -->
<svg version="1.1" id="Layer_1" xmlns="http://www.w3.org/2000/svg" xmlns:xlink="http://www.w3.org/1999/xlink" x="0px" y="0px"
	 viewBox="0 0 100 100" style="enable-background:new 0 0 100 100;" xml:space="preserve">
<style type="text/css">
	.st0{fill:none;}
</style>
<g>
	<path class="st0" d="M100,100c-33.3,0-66.7,0-100,0C0,66.7,0,33.3,0,0c33.3,0,66.7,0,100,0C100,33.3,100,66.7,100,100z M92.2,54.5
		c-28.5,0-56.3,0-84.5,0c3.2,11.4,6.1,22.3,9.6,33.1c0.6,1.9,3.7,4.2,5.6,4.3c18,0.3,36,0.3,53.9,0c1.9,0,5-2,5.5-3.7
		C86,77.1,89,65.8,92.2,54.5z M39.7,32.2c0.5,0.9,0.7,1.4,1,2c2.2,3.9,1.8,7.5-1.8,10.2c-3.6,2.7-7.2,2-10.4-1.1
		c-1.7-1.6-3.6-3.1-4.9-5c-4.1-6-9.9-6.9-16.5-6.4C1.6,32.3,2,36,2,39.7c0,11.3,0.2,12,5.1,12.2c2.5,0.1,5,0,7.5,0
		c25.7,0,51.3-0.1,77,0.1c4.7,0,6.8-1.7,6.5-6.5c-0.2-2.8,0.2-5.7-0.1-8.5c-0.2-1.5-0.8-3.3-1.9-4.3c-2.4-2-13.1-0.8-15.5,1.4
		c-3.3,3.3-6.5,6.7-10,9.8c-3,2.7-6.5,2.7-9.6,0.3c-3.1-2.4-3.8-5.7-2.1-9.4c0.4-0.8,0.8-1.7,1.4-2.7C53.3,32.2,46.7,32.2,39.7,32.2
		z M96.6,11.6c-1-1.2-1.8-2.9-2.6-2.9c-1.8,0-4,0.4-5.2,1.5c-8.4,8.1-16.6,16.3-24.6,24.7c-1.2,1.2-1.8,4.6-1,5.8
		c1.9,2.8,4.4,1,6.2-0.9c8.1-8.1,16.2-16.2,24.3-24.3C94.7,14.4,95.5,13.1,96.6,11.6z M7.4,7.5c-1.2,1-2.9,1.8-2.9,2.7
		c-0.1,1.6,0.4,3.7,1.4,4.8c8.1,8.3,16.2,16.6,24.7,24.6c1.3,1.2,4.6,1.9,5.8,1c2.8-1.9,1.1-4.3-0.8-6.2
		c-8.1-8.1-16.2-16.2-24.3-24.3C10.3,9.1,8.9,8.5,7.4,7.5z"/>
	<path d="M92.2,54.5C89,65.8,86,77.1,82.5,88.1c-0.5,1.7-3.6,3.7-5.5,3.7c-18,0.3-36,0.3-53.9,0c-2,0-5-2.4-5.6-4.3
		C13.9,76.8,11,65.9,7.8,54.5C35.9,54.5,63.7,54.5,92.2,54.5z M53.6,69.7C53.6,69.7,53.6,69.7,53.6,69.7c0-3,0.3-6-0.2-8.9
		c-0.2-1.3-2.2-3.3-3.4-3.3c-1.2,0-3.3,2-3.4,3.3c-0.4,5.9-0.4,11.9,0,17.9c0.1,1.3,2.1,2.5,3.2,3.7c1.3-1.2,3.4-2.3,3.6-3.8
		C54,75.8,53.6,72.7,53.6,69.7z M38.9,70C39,70,39,70,38.9,70c0-3,0.4-6.1-0.1-8.9c-0.3-1.5-2.3-2.6-3.6-3.8
		c-1.1,1.2-3.1,2.4-3.1,3.7c-0.3,6-0.3,11.9,0,17.9c0.1,1.2,2.2,3.3,3.3,3.3c1.2,0,3.2-1.9,3.4-3.2C39.3,76.1,38.9,73,38.9,70z
		 M68.3,70C68.3,70,68.3,70,68.3,70c0-3,0.3-6-0.2-8.9c-0.2-1.4-2-2.5-3.1-3.8c-1.3,1.3-3.6,2.4-3.7,3.8c-0.4,5.8-0.4,11.6,0,17.4
		c0.1,1.4,2.2,2.7,3.4,4c1.2-1.3,3.1-2.5,3.4-4C68.7,75.7,68.3,72.8,68.3,70z"/>
	<path d="M39.7,32.2c7,0,13.6,0,20.6,0c-0.5,1-0.9,1.9-1.4,2.7c-1.8,3.7-1,6.9,2.1,9.4c3.1,2.5,6.6,2.4,9.6-0.3
		c3.5-3.1,6.7-6.5,10-9.8c2.3-2.3,13.1-3.5,15.5-1.4c1.1,0.9,1.8,2.8,1.9,4.3c0.3,2.8-0.1,5.7,0.1,8.5c0.3,4.7-1.7,6.5-6.5,6.5
		c-25.7-0.1-51.3-0.1-77-0.1c-2.5,0-5,0.1-7.5,0C2.2,51.7,2,51.1,2,39.7c0-3.7-0.4-7.4,5.1-7.8c6.7-0.5,12.4,0.4,16.5,6.4
		c1.3,1.9,3.2,3.4,4.9,5c3.2,3.1,6.8,3.8,10.4,1.1c3.5-2.7,4-6.3,1.8-10.2C40.4,33.6,40.1,33.1,39.7,32.2z"/>
	<path d="M96.6,11.6c-1.1,1.5-1.8,2.8-2.8,3.8c-8.1,8.1-16.2,16.2-24.3,24.3c-1.9,1.9-4.3,3.6-6.2,0.9c-0.8-1.2-0.2-4.6,1-5.8
		c8-8.4,16.2-16.6,24.6-24.7C90,9,92.2,8.7,94,8.7C94.8,8.7,95.6,10.4,96.6,11.6z"/>
	<path d="M7.4,7.5c1.5,1,2.9,1.6,3.9,2.6c8.1,8,16.2,16.2,24.3,24.3c1.9,1.9,3.6,4.3,0.8,6.2c-1.2,0.8-4.6,0.2-5.8-1
		C22.2,31.6,14,23.3,5.9,15c-1.1-1.1-1.5-3.2-1.4-4.8C4.5,9.3,6.2,8.5,7.4,7.5z"/>
	<path class="st0" d="M53.6,69.7c0,3,0.4,6-0.2,8.9c-0.3,1.4-2.4,2.5-3.6,3.8c-1.1-1.2-3.1-2.4-3.2-3.7c-0.3-5.9-0.3-11.9,0-17.9
		c0.1-1.2,2.2-3.3,3.4-3.3c1.2,0,3.2,1.9,3.4,3.3C53.9,63.7,53.5,66.7,53.6,69.7C53.6,69.7,53.6,69.7,53.6,69.7z"/>
	<path class="st0" d="M38.9,70c0,3,0.4,6-0.2,8.9c-0.2,1.3-2.2,3.2-3.4,3.2c-1.1,0-3.2-2-3.3-3.3c-0.4-6-0.4-11.9,0-17.9
		c0.1-1.3,2-2.5,3.1-3.7c1.3,1.3,3.3,2.4,3.6,3.8C39.4,64,39,67.1,38.9,70C39,70,39,70,38.9,70z"/>
	<path class="st0" d="M68.3,70c0,2.8,0.4,5.7-0.2,8.4c-0.3,1.5-2.2,2.7-3.4,4c-1.2-1.3-3.3-2.6-3.4-4c-0.4-5.8-0.4-11.6,0-17.4
		c0.1-1.3,2.4-2.5,3.7-3.8c1.1,1.3,2.9,2.4,3.1,3.8C68.6,64,68.3,67,68.3,70C68.3,70,68.3,70,68.3,70z"/>
</g>
</svg>
